<?xml version="1.0" encoding="utf-8"?>
<!-- Generator: Adobe Illustrator 22.0.1, SVG Export Plug-In . SVG Version: 6.00 Build 0)  -->
<svg version="1.1" id="Layer_1" xmlns="http://www.w3.org/2000/svg" xmlns:xlink="http://www.w3.org/1999/xlink" x="0px" y="0px"
	 viewBox="0 0 243 243" style="enable-background:new 0 0 243 243;" xml:space="preserve">
<style type="text/css">
	.st0{fill:#F01F7A;}
	.st1{fill:#FFB2D3;fill-opacity:0.7;}
	.st2{fill:url(#Oval_1_);}
	.st3{fill:url(#SVGID_1_);}
	.st4{fill:url(#SVGID_2_);}
	.st5{fill:url(#SVGID_3_);}
	.st6{fill:url(#SVGID_4_);}
	.st7{fill:url(#SVGID_5_);}
	.st8{fill:#FFFFFF;}
</style>
<circle id="Oval-Copy-15" class="st0" cx="110.2" cy="144.1" r="96.1"/>
<circle id="Oval-Copy-16" class="st1" cx="152.6" cy="96.1" r="76.3"/>
<linearGradient id="Oval_1_" gradientUnits="userSpaceOnUse" x1="-88.0446" y1="81.9546" x2="-86.0454" y2="79.9554" gradientTransform="matrix(85.949 0 0 85.949 7602.9321 -6836.5029)">
	<stop  offset="1.747016e-03" style="stop-color:#FFFFFF;stop-opacity:0"/>
	<stop  offset="1" style="stop-color:#FFFFFF;stop-opacity:0.2"/>
</linearGradient>
<circle id="Oval" class="st2" cx="121.5" cy="121.5" r="121.5"/>
<linearGradient id="SVGID_1_" gradientUnits="userSpaceOnUse" x1="62.3388" y1="122.7084" x2="62.3388" y2="200.5135">
	<stop  offset="0" style="stop-color:#FFFFFF;stop-opacity:0.7"/>
	<stop  offset="1" style="stop-color:#FFFFFF;stop-opacity:0.1"/>
</linearGradient>
<path class="st3" d="M64.5,200.5h-4.4c-2,0-3.6-1.6-3.6-3.6v-70.6c0-2,1.6-3.6,3.6-3.6h4.4c2,0,3.6,1.6,3.6,3.6v70.6
	C68.2,198.9,66.5,200.5,64.5,200.5z"/>
<linearGradient id="SVGID_2_" gradientUnits="userSpaceOnUse" x1="109.5073" y1="139.4474" x2="109.5073" y2="200.6144">
	<stop  offset="0" style="stop-color:#FFFFFF;stop-opacity:0.7"/>
	<stop  offset="1" style="stop-color:#FFFFFF;stop-opacity:0.1"/>
</linearGradient>
<path class="st4" d="M111.7,200.6h-4.4c-2,0-3.6-1.6-3.6-3.6v-53.9c0-2,1.6-3.6,3.6-3.6h4.4c2,0,3.6,1.6,3.6,3.6V197
	C115.3,199,113.7,200.6,111.7,200.6z"/>
<linearGradient id="SVGID_3_" gradientUnits="userSpaceOnUse" x1="85.6803" y1="90.477" x2="85.6803" y2="200.5135">
	<stop  offset="0" style="stop-color:#FFFFFF;stop-opacity:0.7"/>
	<stop  offset="1" style="stop-color:#FFFFFF;stop-opacity:0.1"/>
</linearGradient>
<path class="st5" d="M87.9,200.5h-4.4c-2,0-3.6-1.6-3.6-3.6V94.1c0-2,1.6-3.6,3.6-3.6h4.4c2,0,3.6,1.6,3.6,3.6v102.8
	C91.5,198.9,89.9,200.5,87.9,200.5z"/>
<linearGradient id="SVGID_4_" gradientUnits="userSpaceOnUse" x1="134.7151" y1="122.7084" x2="134.7151" y2="200.5135">
	<stop  offset="0" style="stop-color:#FFFFFF;stop-opacity:0.7"/>
	<stop  offset="1" style="stop-color:#FFFFFF;stop-opacity:0.1"/>
</linearGradient>
<path class="st6" d="M136.9,200.5h-4.4c-2,0-3.6-1.6-3.6-3.6v-70.6c0-2,1.6-3.6,3.6-3.6h4.4c2,0,3.6,1.6,3.6,3.6v70.6
	C140.6,198.9,138.9,200.5,136.9,200.5z"/>
<linearGradient id="SVGID_5_" gradientUnits="userSpaceOnUse" x1="158.0566" y1="90.477" x2="158.0566" y2="200.5135">
	<stop  offset="0" style="stop-color:#FFFFFF;stop-opacity:0.7"/>
	<stop  offset="1" style="stop-color:#FFFFFF;stop-opacity:0.1"/>
</linearGradient>
<path class="st7" d="M160.3,200.5h-4.4c-2,0-3.6-1.6-3.6-3.6V94.1c0-2,1.6-3.6,3.6-3.6h4.4c2,0,3.6,1.6,3.6,3.6v102.8
	C163.9,198.9,162.3,200.5,160.3,200.5z"/>
<path class="st8" d="M64.5,199.6h-4.4c-2,0-3.6-1.6-3.6-3.6v-56.5c0-2,1.6-3.6,3.6-3.6h4.4c2,0,3.6,1.6,3.6,3.6V196
	C68.2,197.9,66.5,199.6,64.5,199.6z"/>
<path class="st8" d="M111.7,199.6h-4.4c-2,0-3.6-1.6-3.6-3.6v-36.6c0-2,1.6-3.6,3.6-3.6h4.4c2,0,3.6,1.6,3.6,3.6V196
	C115.3,198,113.7,199.6,111.7,199.6z"/>
<path class="st8" d="M87.9,199.6h-4.4c-2,0-3.6-1.6-3.6-3.6v-71.8c0-2,1.6-3.6,3.6-3.6h4.4c2,0,3.6,1.6,3.6,3.6V196
	C91.5,197.9,89.9,199.6,87.9,199.6z"/>
<path class="st8" d="M136.9,199.6h-4.4c-2,0-3.6-1.6-3.6-3.6v-54.4c0-2,1.6-3.6,3.6-3.6h4.4c2,0,3.6,1.6,3.6,3.6V196
	C140.6,197.9,138.9,199.6,136.9,199.6z"/>
<path class="st8" d="M160.3,199.6h-4.4c-2,0-3.6-1.6-3.6-3.6v-88.3c0-2,1.6-3.6,3.6-3.6h4.4c2,0,3.6,1.6,3.6,3.6V196
	C163.9,197.9,162.3,199.6,160.3,199.6z"/>
</svg>
