<?xml version="1.0" encoding="utf-8"?>
<!-- Generator: Adobe Illustrator 22.0.1, SVG Export Plug-In . SVG Version: 6.00 Build 0)  -->
<svg version="1.1" id="Layer_1" xmlns="http://www.w3.org/2000/svg" xmlns:xlink="http://www.w3.org/1999/xlink" x="0px" y="0px"
	 viewBox="0 0 243 243" style="enable-background:new 0 0 243 243;" xml:space="preserve">
<style type="text/css">
	.st0{fill:#F01F7A;}
	.st1{fill:#FFB2D3;fill-opacity:0.7;}
	.st2{fill:url(#Oval_1_);}
	.st3{opacity:0.8;fill:#FFE3F2;}
	.st4{opacity:0.98;fill:#FFE3F2;}
</style>
<circle id="Oval-Copy-15" class="st0" cx="110.2" cy="144.1" r="96.1"/>
<circle id="Oval-Copy-16" class="st1" cx="152.6" cy="96.1" r="78.9"/>
<linearGradient id="Oval_1_" gradientUnits="userSpaceOnUse" x1="-88.0446" y1="81.9546" x2="-86.0454" y2="79.9554" gradientTransform="matrix(85.949 0 0 85.949 7602.9321 -6836.5029)">
	<stop  offset="1.747016e-03" style="stop-color:#FFFFFF;stop-opacity:0"/>
	<stop  offset="1" style="stop-color:#FFFFFF;stop-opacity:0.2"/>
</linearGradient>
<circle id="Oval" class="st2" cx="121.5" cy="121.5" r="121.5"/>
<path class="st3" d="M190.5,96.2c0,5-1.2,6.5-6.2,7.4c-4,0.8-6.3,5.8-4.2,9.4c0.3,0.6,0.7,1.1,1,1.6c1.7,2.6,1.4,5-0.7,7.2
	c-0.2,0.2-0.4,0.4-0.6,0.6c-3.7,4.1-6.3,4.2-10.3,1.4c-3.7-2.6-8.8-0.1-9.6,4.3c-0.9,4.5-2.5,5.9-7,5.9c-0.5,0-1,0-1.6,0
	c-3.5,0-5.7-1.8-6.1-5.3c-0.7-5.8-7.2-7.2-10.6-4.5c-3,2.4-5.5,2.1-8.3-0.6c-0.4-0.4-0.7-0.7-1.1-1.1c-3-3-3.2-5.1-0.8-8.7
	c2.2-3.3,1.5-7.4-1.7-9.4c-0.8-0.5-1.8-0.7-2.7-0.9c-3.6-0.6-5.4-2.6-5.4-6.2c0-0.9,0-1.7,0-2.6c0-3.4,1.9-5.7,5.2-6
	c5.5-0.5,7.4-6.8,4.4-10.5c-2.4-3-2-5.4,0.6-8.1c0.5-0.5,1-1,1.5-1.5c2.9-2.9,5.1-3.2,8.5-0.7c2.4,1.7,4.9,1.8,7.4,0.3
	c1.6-0.9,2.5-2.4,2.8-4.2c0.7-4.4,2.5-5.9,6.8-5.9c0.7,0,1.5,0,2.2,0c3.4,0,5.7,2,6,5.4c0.5,5.4,6.4,7,10,4.6c4-2.7,5.7-2.5,9.2,0.9
	c0.3,0.3,0.7,0.6,1,1c2.7,2.8,2.9,5.1,0.7,8.3c-2.3,3.3-1.8,7.2,1.3,9.3c0.6,0.5,1.4,0.8,2.2,1C189.3,89.6,190.6,91,190.5,96.2z
	 M163.2,96c0-4.9-4.4-9.2-9.4-9.2c-5,0-9.2,4.4-9.2,9.4c0,5,4.4,9.2,9.4,9.1C159,105.3,163.2,101,163.2,96z"/>
<path class="st4" d="M173.9,144.3c0,8.4-2.1,10.9-10.4,12.5c-6.8,1.3-10.5,9.6-7.1,15.8c0.5,0.9,1.2,1.8,1.7,2.7
	c2.8,4.3,2.4,8.4-1.1,12.1c-0.3,0.3-0.7,0.7-1,1c-6.1,6.9-10.5,7.1-17.3,2.4c-6.2-4.3-14.7-0.2-16.1,7.2c-1.4,7.5-4.2,9.8-11.8,9.8
	c-0.9,0-1.7,0-2.6,0c-6,0-9.6-3-10.3-8.8c-1.1-9.8-12.1-12-17.7-7.5c-5,4-9.3,3.5-13.9-1.1c-0.6-0.6-1.2-1.2-1.8-1.8
	c-5.1-5.1-5.4-8.6-1.4-14.6c3.7-5.5,2.5-12.4-2.8-15.7c-1.3-0.8-3-1.2-4.6-1.5c-6-1-9-4.4-9-10.4c0-1.5,0-2.9,0-4.4
	c0-5.6,3.2-9.6,8.7-10c9.2-0.8,12.3-11.5,7.4-17.7c-3.9-5-3.4-9.1,1-13.7c0.8-0.8,1.6-1.6,2.5-2.5c4.9-4.9,8.6-5.3,14.3-1.2
	c4.1,2.9,8.2,3,12.5,0.5c2.6-1.6,4.1-4,4.6-7c1.2-7.3,4.1-9.8,11.4-9.8c1.3,0,2.5,0,3.8,0c5.7,0.1,9.5,3.4,10.1,9.1
	c0.8,9,10.8,11.7,16.8,7.6c6.6-4.6,9.6-4.2,15.4,1.5c0.5,0.5,1.1,1.1,1.7,1.6c4.5,4.7,4.8,8.6,1.1,14c-3.8,5.6-3,12.1,2.1,15.7
	c1.1,0.8,2.4,1.4,3.7,1.6C171.8,133.2,173.9,135.7,173.9,144.3z M128,144c-0.1-8.3-7.4-15.4-15.8-15.3c-8.4,0.1-15.4,7.3-15.4,15.7
	c0.1,8.3,7.3,15.4,15.8,15.3C120.9,159.7,128.1,152.4,128,144z"/>
</svg>
