<?xml version="1.0" encoding="utf-8"?>
<!-- Generator: Adobe Illustrator 22.0.1, SVG Export Plug-In . SVG Version: 6.00 Build 0)  -->
<svg version="1.1" id="Layer_1" xmlns="http://www.w3.org/2000/svg" xmlns:xlink="http://www.w3.org/1999/xlink" x="0px" y="0px"
	 viewBox="0 0 243 243" style="enable-background:new 0 0 243 243;" xml:space="preserve">
<style type="text/css">
	.st0{fill:#F01F7A;}
	.st1{fill:#FFB2D3;fill-opacity:0.7;}
	.st2{fill:url(#Oval_1_);}
	.st3{fill:url(#SVGID_1_);}
	.st4{fill:none;stroke:#FFFFFF;stroke-width:5;stroke-linecap:round;stroke-linejoin:round;stroke-miterlimit:10;}
	.st5{fill:#FFFFFF;}
</style>
<circle id="Oval-Copy-15" class="st0" cx="110.2" cy="144.1" r="96.1"/>
<circle id="Oval-Copy-16" class="st1" cx="152.6" cy="96.1" r="76.3"/>
<linearGradient id="Oval_1_" gradientUnits="userSpaceOnUse" x1="-88.0446" y1="81.9546" x2="-86.0454" y2="79.9554" gradientTransform="matrix(85.949 0 0 85.949 7602.9321 -6836.5029)">
	<stop  offset="1.747016e-03" style="stop-color:#FFFFFF;stop-opacity:0"/>
	<stop  offset="1" style="stop-color:#FFFFFF;stop-opacity:0.2"/>
</linearGradient>
<circle id="Oval" class="st2" cx="121.5" cy="121.5" r="121.5"/>
<linearGradient id="SVGID_1_" gradientUnits="userSpaceOnUse" x1="112.6754" y1="115.4056" x2="112.6754" y2="240.1744">
	<stop  offset="0" style="stop-color:#FFFFFF;stop-opacity:0.7"/>
	<stop  offset="1" style="stop-color:#FFFFFF;stop-opacity:0.1"/>
</linearGradient>
<path class="st3" d="M206.3,144.1c0-4.1-0.3-8.1-0.7-12l-1-2.7l-31.7-14L135.1,159l-34-20.5l-32.1,39.2l-30-14l-20,11
	c12.8,38.1,48.7,65.5,91.1,65.5C163.3,240.2,206.3,197.2,206.3,144.1z"/>
<polyline class="st4" points="204.5,129.4 172.8,115.4 135.1,159 101.1,138.5 69.1,177.6 39.1,163.6 19.1,174.6 "/>
<circle class="st5" cx="39.1" cy="163.6" r="5"/>
<circle class="st5" cx="101.1" cy="139.6" r="5"/>
<circle class="st5" cx="69.1" cy="177.6" r="5"/>
<circle class="st5" cx="173.1" cy="114.6" r="5"/>
<circle class="st5" cx="135.1" cy="157.6" r="5"/>
</svg>
