<?xml version="1.0" encoding="utf-8"?>
<!-- Generator: Adobe Illustrator 22.0.1, SVG Export Plug-In . SVG Version: 6.00 Build 0)  -->
<svg version="1.1" id="Layer_1" xmlns="http://www.w3.org/2000/svg" xmlns:xlink="http://www.w3.org/1999/xlink" x="0px" y="0px"
	 viewBox="0 0 1724 834.4" style="enable-background:new 0 0 1724 834.4;" xml:space="preserve">
<style type="text/css">
	.st0{fill:#F177AD;}
	.st1{fill:#EF2079;}
	.st2{fill:#F260A0;}
	.st3{fill:#F177AE;}
	.st4{fill:#F14A93;}
	.st5{fill:#0A1B2A;}
	.st6{fill:#F48ABB;}
	.st7{fill:#F8FCFB;}
	.st8{fill:#F7FBFA;}
	.st9{fill:#FAFDFC;}
	.st10{fill:#68737E;}
</style>
<path class="st0" d="M23.1,283.2c9.9-29.8,23.8-57.7,40.3-84.3c19.5-31.4,42.7-59.8,69.6-85.1c41.6-39.2,89-69.2,143-88.7
	c35.5-12.8,72.1-20.3,109.9-22.4C445.6-0.6,504,5.9,560.5,26.2c30.3,10.8,58.8,25.2,85.7,43c1,0.6,1.8,1.4,2.8,2.1
	c-1.1,2.8-3.8,2.3-5.9,2.8c-41.8,10-83.6,20-125.4,29.9c-3.8,0.9-4.8,2.1-3.8,6.1c8.1,33.6,16,67.2,23.8,100.8
	c3.2,13.6,7.2,26.9,9.2,40.8c-9.8-7.2-19.6-14.3-30.2-20.3c-37.8-21.5-78.2-29.9-121.4-23.7c-30.7,4.4-59.5,14.9-86.4,30.3
	c-29,16.7-53,38.7-70.7,67.4c-10.5,17.1-17.9,35.6-23.3,54.8c-13.3,5.6-26.6,11.2-39.9,16.8c-27.6,11.8-55.3,23.6-82.9,35.6
	c-10.9,4.7-11,5.1-15.6-5.5c-9.7-22.2-19.1-44.6-28.7-66.9C39.7,321.2,31.3,302.2,23.1,283.2z M294.7,107.2
	c-8.9,0.1-15.7,5.1-23.3,7.9c-3.8,1.4-4.1,3.1-2.4,6.6c6.2,12.8,12.1,25.8,18.1,38.8c3.6,7.9,3.6,7.9,11.7,4c6-2.9,12.4-5,16.8-10.3
	c10.7-12.9,5.2-35.8-10.4-44.1C301.8,108.3,298.1,107.6,294.7,107.2z M276.1,166.3c-0.1-8.7-6.1-20.5-13.7-26.7
	c-10-8.2-19.9-8.7-30.1-1.5c-8.7,6.2-11.5,16.7-7.2,28c2.6,6.9,6.8,13,12.6,17.7c7.3,6,15.7,7.7,24.5,3.6
	C271,183.2,276.1,176.4,276.1,166.3z M361,113.6c0.3-4.8-2.5-7.1-7.2-5.7c-2.4,0.7-4.8,1.4-7.2,2.1c-9.1,2.8-8.9,2.7-11.9-6.4
	c-1.1-3.2-0.1-3.9,2.7-4.7c6.2-1.7,12.4-3.8,18.6-5.6c4.1-1.2,1.5-3.6,1.1-5.5c-0.4-1.9-0.3-4.7-3.8-3.6c-10.3,3.2-20.6,6.3-31,9.4
	c-1.6,0.5-2.6,0.9-1.9,3.1c5,16.3,9.9,32.7,14.8,49.1c0.5,1.8,1.2,2.3,3.2,1.7c10.3-3.2,20.6-6.4,31-9.4c3.1-0.9,2.7-2.6,1.6-4.4
	c-1.1-1.8,0.4-6.2-4.3-4.7c-4,1.2-8,2.3-11.9,3.5c-10.8,3.2-10.6,3.1-13.7-7.6c-0.9-3.1,0.2-4.1,2.8-4.9c5-1.4,9.9-2.8,14.8-4.4
	C359.7,115.5,361.2,115.6,361,113.6z M234.2,199.7c-0.2-1.8-0.1-4.3-1.1-6.7c-2.8-6.6-3.1-6.7-8.2-1.8c-1.5,1.5-4.9,2.4-2.6,5.8
	c3.2,4.8,1.2,8.8-2.4,12.4c-3.8,3.7-8.4,4.6-12.7,1.7c-6.8-4.4-12.4-10-16.1-17.3c-2.4-4.7-1.2-9.1,2.7-12.6
	c4.4-3.9,7.6-4.4,12.6-1.3c1.7,1.1,2.7,1.3,4.1-0.3c1.2-1.4,2.6-2.6,4-3.7c2.5-2,1.9-3.1-0.6-4.7c-8.6-5.6-17.2-4.9-25.6,2.1
	c-8.4,7-11.1,17.1-6.8,26.4c4,8.7,10.4,15.5,18.6,20.2C214.6,228.4,233.8,217.3,234.2,199.7z"/>
<path class="st1" d="M861.2,271.8c23.7-23.6,47.4-47.3,71.1-70.9c11.1-11,22.4-21.9,33.5-32.8c45.6,0,91.2,0.1,136.8,0
	c5.1,0,6.4,1.3,6.4,6.4c-0.2,47.3-0.1,94.5,0,141.8c-5.1,6.1-11.4,11.1-17,16.8c-26.6,26.6-53.1,53.3-79.7,79.9
	c-1.5,1.3-3.1,2.5-4.5,3.9c-47.5,47.4-94.9,94.9-142.3,142.3c-1.3,1.3-2.4,2.7-3.6,4.1c-38.3,38.2-76.5,76.5-114.8,114.7
	c-14,14-28,28-42.6,41.3c-1.3,1.2-2.3,2.9-4.3,3.2c-0.1-2.3-0.2-4.7-0.2-7c0-42.8,0-85.6,0-128.4c0-6.9,0-6.9-7.1-6.9
	c-47.3,0-94.6,0-141.9,0c13.6-11.3,25.7-24,38.3-36.2c19.4-18.7,38.4-37.9,57.4-56.9c22.2-22.2,44.4-44.5,66.6-66.8
	c0.8-0.7,1.6-1.3,2.3-2c47.6-47.6,95.3-95.3,142.9-142.9C859.4,274.2,860.3,273,861.2,271.8z M880,450.1c2.2-2,4.2-4.2,6.5-6.1
	c2.3-1.9,2.6-3.6,1.2-6.4c-4.1-7.9-4-7.9,2.3-14.1c0.4-0.4,0.7-0.7,1.1-1.1c6.6-6.6,6.6-6.6,15-2.6c1.4,0.7,2.8,2,4.4,0.2
	c2.3-2.5,4.7-4.9,7.2-7.6c-17.5-7.9-34.7-15.5-51.6-23.4c-4.4-2.1-5.4,1.7-7.7,3.5c-1.8,1.4-3.3,2.8-1.8,5.8
	c4.6,9.2,8.9,18.5,13,27.9C873.1,434.2,877.6,441.7,880,450.1c-2.5,1.4-3.3-1.2-4.3-2.4c-2-2.2-3.4-2.6-5.5-0.1
	c-2.4,2.8-5.1,5.2-7.7,7.8c-8.5,8.5-8.5,8.5-16.7-0.4c-1.6-1.8-1.7-2.7,0.1-4.3c3.8-3.5,7.1-7.5,11-10.9c2.4-2.2,1.8-3.3-0.1-5.5
	c-2.9-3.5-5-3.3-7.6,0.2c-1.3,1.7-2.9,3.2-4.5,4.7c-7.7,7.7-7.6,7.6-15-0.2c-2-2.1-1.3-3.1,0.3-4.7c4.5-4.4,8.8-9.2,13.5-13.3
	c3.3-2.9,0.8-4.1-0.9-5.7c-1.6-1.5-2.6-4.4-5.7-1.1c-7,7.6-14.3,14.9-21.7,22.1c-2.1,2-1.9,3,0.1,4.9c9.7,9.4,19.2,19,28.8,28.5
	c2.8,2.8,5.6,7.5,8.7,7.7c3.2,0.2,5.9-4.8,8.6-7.6C867.6,463.1,874.7,457.5,880,450.1z M786.4,544.7c-7.7-2.4-14.9-4.7-22.1-6.9
	c-1.5-0.5-3-0.5-2.6-3.1c1.3-9.6-1.8-15.5-9.4-19.4c-6.3-3.2-13.2-1.9-19.9,4.4c-5,4.7-9.6,9.7-14.5,14.4c-1.8,1.8-1.9,2.8,0,4.7
	c12.5,12.4,24.8,25,37,37.4c3.2-3,6-5.6,9-8.4c-3.8-3.7-7.5-7-10.9-10.7c-1.2-1.3-4.7-2.3-2.5-4.9c2.1-2.6,3.7-6.4,8.8-4.2
	c5,2.2,10.4,3.4,15.6,5.1c1.8,0.6,3.4,0.7,4.8-1C781.7,549.4,784,547.3,786.4,544.7z M911.7,347.2c-10-0.1-19.7,7.6-23.3,17.8
	c-3.5,9.8,3.1,19.1,13.6,19.2c4.1,0,7.8-1.2,11.5-3c3.6-1.7,7.1-3.6,10.9-4.9c4.9-1.7,9.2,1.5,8.7,6.2c-0.7,6.6-9.4,11.7-15.4,8.9
	c-1-0.4-1.9-1.9-3.1-0.7c-2.4,2.3-6.5,4.4-6.4,7.2c0.1,3.3,4.6,4.3,7.8,5c1.9,0.4,4.1,0.5,5.9,0c10.2-2.5,17.6-8.5,21.1-18.5
	c3.6-10.5-4.6-20.4-15.7-19.3c-5.5,0.5-10.1,3.2-14.9,5.5c-2.7,1.3-5.3,2.7-8.4,2.8c-4,0-5.8-2.1-5.6-5.9c0.3-6.5,7.1-11,13.2-8.7
	c0.9,0.3,1.7,1.6,2.7,0.8c2.7-2.2,6.6-4.4,6.9-7.5c0.3-2.6-4.1-3.7-6.9-4.5C913.2,347.2,912,347.2,911.7,347.2z M961.8,332.1
	c-1.4-1.2-3.1-3.2-5.2-4.5c-2-1.3-2.7,1.3-3.8,2.2c-1.9,1.6-3.5,3.6-5.2,5.3c-7.7,7.7-7.6,7.6-14.9-0.2c-2-2.1-1.3-3.1,0.3-4.7
	c4.3-4.2,8.3-8.7,12.8-12.6c2.9-2.6,2.7-4.1-0.1-6.5c-2.3-2-3.5-3.7-6.5-0.4c-6.7,7.4-13.8,14.4-20.9,21.4c-2,1.9-2.1,2.8-0.1,4.9
	c11.8,11.5,23.5,23.1,35,34.9c2.1,2.1,3.1,1.9,5.1-0.1c7.2-7.4,14.5-14.7,21.9-21.9c1.7-1.6,2.7-3,0-4.4c-2.1-1.1-2.9-6.3-6.8-2.1
	c-4.5,4.9-9.4,9.4-14,14.2c-1.5,1.5-2.7,1.9-3.9,0c-2.3-3.5-7.5-4.7-7.5-9.9c0-0.6,1.1-1.2,1.7-1.8c3.5-3.6,7-7.1,10.5-10.7
	C960.8,334.7,961.8,334.2,961.8,332.1z M750.9,499.9c13,13.1,25.5,25.6,37.8,38.2c2,2,3,1.5,4.7-0.2c7.1-7.3,14.3-14.4,21.5-21.6
	c1.4-1.4,4-2.7,0.7-4.7c-2.2-1.3-3.2-6.5-7.2-1.9c-2.5,2.9-5.4,5.4-8.1,8.2c-8.1,8.1-8.1,8.1-16-0.4c-1.7-1.8-2-2.9,0-4.8
	c3.7-3.6,7-7.5,10.8-11c2.1-1.9,1.8-2.9,0.1-5c-3.2-3.9-5.5-3.8-8.3,0.2c-1.1,1.6-2.7,2.9-4.1,4.3c-7.8,7.8-7.8,7.8-15.2-0.5
	c-1.5-1.7-1.4-2.5,0.1-3.9c4.8-4.6,9.3-9.6,14.2-14c3.3-3,0.3-4.1-1.2-5.7c-1.4-1.6-2.5-3.8-5.3-0.9
	C767.4,484.2,759,492.1,750.9,499.9z M790.5,460.8c-2.1,2.2-3.9,4.4-6,6.3c-1.7,1.5-1.4,2.5,0.1,4c12,11.8,23.9,23.6,35.8,35.5
	c1.4,1.4,2.4,2,4,0.3c7.2-7.4,14.6-14.6,21.9-21.9c3.6-3.6-1.3-4.1-2.3-6c-1-1.8-2.4-2.8-4.5-0.5c-3.9,4.3-8.3,8.2-12.2,12.5
	c-2.3,2.5-3.7,2.7-6.2,0.1c-9-9.3-18.3-18.4-27.6-27.5C792.5,462.5,791.5,461.7,790.5,460.8z"/>
<path class="st2" d="M1520,59.3c18.7,9.9,36,21.9,52.5,35.1c33.4,26.8,61.4,58.4,84.1,94.7c27.6,44.1,45.8,92.1,57.4,142.6
	c5.1,22.1,8.2,44.4,9.4,67c2.9,53.7-5,105.7-23.1,156.2c-18.4,51.3-45.8,97.2-82,137.9c-1.6,1.9-3,4-5.2,5.3c-2.1-0.3-4.1-0.9-6.3-1
	c-14-0.6-28.1-1.3-42.1-2.2c-18.8-1.2-37.5-2.6-56.3-3.7c-13.9-0.8-27.7-1.3-41.6-2.1c-8.1-0.5-8.5-1.4-7.8-9.2
	c1.2-13.2,2.2-26.4,2.9-39.6c0.9-14.2,0.9-28.5,2.3-42.7c0.6-6.3,0.4-12.6,1-18.8c0.7-8.2,1-16.5,1.5-24.7c1.7-2.2,3.4-4.5,5.1-6.7
	c29.1-37.5,43.9-80,44.9-127.3c0.4-20.1-2.3-39.7-7.8-59.1c-11.2-39.8-32.4-73.2-63.1-100.7c-13.2-11.8-28.1-21.1-43.3-29.9
	c8.2-1.3,16.4-2.5,24.6-3.8c18.5-2.8,37-5.6,55.6-8.4c18.4-2.7,36.7-5.4,55.1-7.9c2.9-0.4,3.9-1,3.4-4.4
	c-2.6-16.5-4.8-33.1-7.2-49.7c-2.5-17.4-5.1-34.8-7.6-52.2C1524.3,89.1,1522.1,74.2,1520,59.3z M1589,453.7c6.8-3,12.7-5.7,18.6-8.3
	c0.6-0.3,1.2-0.6,1.8-0.9c1.7-0.8,2.7-0.9,3.9,1.2c4.7,7.5,11.1,10.2,19.6,8.3c7.7-1.8,11.1-7.6,12.1-14.8c1-6.9,1.1-13.9,1.9-20.8
	c0.4-3.5-0.7-4.5-4.2-4.7c-14.4-0.8-28.9-1.8-43.3-2.8c-8.8-0.7-8.7-0.8-9.4,7.8c-0.2,2.6,0.6,3.5,3.3,3.5c3.7,0,7.3,0.2,11,0.6
	c6.8,0.7,6.6,0.7,5.8,7.3c-0.3,2.6-2,3.2-3.8,4c-4.7,2.1-9.4,4.3-14.2,6c-2.5,0.9-3.3,2.3-3.5,4.7c-0.4,5.3-0.5,10.7-2.5,15.7
	c-1.5,3.6-0.6,6,3.1,7.4c5.2,2.1,6.9,5.4,4.2,10.8c-1.3,2.6-1.9,5.7-2.3,8.7c-0.5,3.6-2.4,4.5-5.7,4.7c-7.8,0.5-7.8,0.7-9.9,8.6
	c-0.3,1.1-0.6,2.2-0.9,3.3c3.1,0.7,5.8-0.4,8.6-0.7c15.7-1.4,31.4-3.2,47.2-4.3c5.2-0.4,4.6-4.2,5.8-7.1c1.2-2.8,0.3-4.5-2.3-6
	c-3.8-2.3-7.3-5.2-11-7.8C1612,470,1600.9,462.2,1589,453.7z M1554.9,284c-0.1,11.8,7.9,22,19.6,23.3c13.3,1.5,23.8-4.8,32.2-14.5
	c5.9-6.9,6.7-15,2.8-23.3c-3.9-8.3-10.2-13.6-19.7-13.7c-13.1-0.1-23.2,6-31.1,16.1C1556,275.4,1554.9,279.6,1554.9,284z
	 M1634,331.7c-0.6-7.3-4.8-16.1-7.4-25.3c-0.5-2-2-1.4-3.2-1c-16.1,5.2-32.2,10.4-48.4,15.5c-2.1,0.7-2.5,1.4-2,3.5
	c2.1,8.6,2,8.6,10.1,6c2.4-0.7,4.9-1.2,7.1-2.2c3.5-1.5,5.2-1.1,6.1,3.1c0.9,4.3,2.4,8.6,4.9,12.5c4.8,7.4,11.7,10.1,19.7,7.7
	C1629.2,348.9,1634,342.6,1634,331.7z M1639.3,361.9c-17.6,2.2-34.3,4.3-50.9,6.2c-1.8,0.2-2.2,0.9-2,2.6c1.3,10.7,2.6,21.4,4,32.1
	c0.6,4.6,4.1,1.9,6.2,2.3c2.3,0.4,3.1-0.7,2.7-3.3c-0.8-5.1-1.1-10.2-1.8-15.3c-1.1-7.5-1.2-7.5,6.1-8.5c1.8-0.2,3.6-0.6,5.4-0.8
	c1.9-0.3,3,0.1,3.2,2.5c0.4,4.6,1.7,9.2,1.7,13.8c0,4.7,1.4,5.9,6.1,4.9c3-0.6,3.5-1.6,3.1-4.1c-0.4-2.8-0.8-5.6-1-8.4
	c-0.9-10.2-0.9-10.1,9.1-11.4c2.1-0.3,2.9-0.1,3.2,2.2c0.7,6.6,1.7,13.2,2.6,19.7c0.3,1.9-0.1,4.5,3.2,3.2c2.3-0.9,6.9,1.3,6.1-4.4
	c-1.5-10-2.7-20.1-3.8-30.1C1642,362.2,1641,361.2,1639.3,361.9z M1602.7,575.3c-0.3-1.4-1.6-1.7-2.5-2.2
	c-14.1-8.5-28.3-16.8-42.3-25.4c-2.5-1.5-3.5-1.3-4.9,1.1c-5.3,9-10.7,18-16.2,26.9c-0.7,1.1-1.6,1.9-0.1,3.3
	c4.4,3.8,6.3,3.7,9.2-1.2c2-3.3,3.9-6.5,5.9-9.8c4.7-7.8,4.5-7.6,12.6-3c4.1,2.4,6,4.2,2.2,8.5c-2.4,2.7-3.7,6.3-5.8,9.3
	c-2.5,3.5-2.2,5.5,1.9,7.5c2.7,1.3,3.9,1.5,5.2-1.5c1.2-2.7,3.1-5.1,4.6-7.7c5.4-9.1,5.6-9.1,14.2-2.5c1.7,1.3,1.9,2.1,0.8,3.9
	c-3.5,5.5-6.6,11.1-10.2,16.5c-1.6,2.4-1.7,3.9,1.1,4.9c2.3,0.8,4.3,4.9,7,0c5-9,10.6-17.7,15.9-26.5
	C1602,576.7,1602.4,576,1602.7,575.3z M1626.9,522.7c-1.3-2.4-4.1-2.3-6.2-3.5c-1.5-0.8-2.4,0.1-3,1.6c-1.3,3.2-2.8,6.4-4.1,9.6
	c-1.1,2.8-2.3,3.3-5.2,2c-11.9-5.4-24-10.4-36-15.8c-2.9-1.3-4.2-1.1-5,2c-0.3,1.3-0.9,2.5-1.6,3.6c-2.1,3-0.5,4.1,2.2,5.3
	c9,3.8,18,7.7,26.9,11.7c4,1.8,10,2.3,11.4,6c1.1,2.8-2.6,7.4-4.2,11.3c-0.1,0.2-0.1,0.3-0.2,0.5c-2.3,3.2-0.1,4.3,2.5,5.3
	c2.3,0.8,4.3,2.9,6-1.3c4.8-11.8,10.2-23.4,15.3-35.1C1626.2,524.8,1626.5,523.8,1626.9,522.7z"/>
<path class="st3" d="M1466.7,554.1c-0.5,8.2-0.8,16.5-1.5,24.7c-0.6,6.3-0.4,12.5-1,18.8c-1.3,14.2-1.4,28.4-2.3,42.7
	c-0.8,13.2-1.7,26.4-2.9,39.6c-0.7,7.8-0.3,8.8,7.8,9.2c13.9,0.8,27.7,1.3,41.6,2.1c18.8,1.1,37.5,2.6,56.3,3.7
	c14,0.9,28,1.6,42.1,2.2c2.2,0.1,4.2,0.7,6.3,1c-11.2,13.9-24.6,25.7-38.2,37.2c-28.4,24.2-59.5,44.1-93.3,59.9
	c-32.7,15.2-66.8,25.9-102.4,31.9c-27.3,4.7-54.8,6.7-82.4,5.7c-56-1.9-110-12.5-161.4-35.6c-43.5-19.6-82.2-46.1-116.9-78.9
	c-7-6.6-14.1-13.2-20.5-20.3c0-48,0.1-96-0.1-144c0-4.8,1.3-6.1,6.1-6.1c45.3,0.2,90.6,0.1,136,0.1c7.4,6.9,14.8,13.8,22.1,20.8
	c16.4,15.9,34.7,29,55.3,38.8c37.9,18.1,77.8,23.8,119.3,17.6c35-5.2,66.7-18.4,95.2-39.4C1444.7,576.6,1456,565.7,1466.7,554.1z
	 M1077.1,621.2c-0.2,1.4-0.2,2.1-0.4,2.7c-4.1,10.7-8.3,21.4-12.3,32.1c-0.8,2.2-3,4.4,0.3,7c2.9,2.3,5.1,3.1,8.2,0.7
	c2.1-1.6,4.6-2.7,6.9-4c8.2-4.6,16.4-9.1,24.6-13.7c-6.5,8.4-13.7,15.9-20.4,23.8c-5.6,6.5-5.8,3.9,0.8,10.4
	c2.6,2.6,4.2,1.8,6.3-0.7c8.9-10.6,17.9-21,26.9-31.5c6.8-7.9,6.6-7.7-0.8-14.7c-3.1-2.9-5.1-2.6-8.5-0.6
	c-10.5,6.3-21.2,12.3-32.9,19c4.2-11,8-20.8,11.9-30.6c4.1-10.5,4-10.4-5-17.4c-2.4-1.9-3.3-1.4-5.1,0.6
	c-10.3,12.2-20.5,24.5-31.3,36.2c-4.7,5.1,0.4,5.9,2.3,8.2c2.3,2.8,4.2,2.7,6.6-0.4C1061.9,639.3,1069.3,630.6,1077.1,621.2z
	 M1348.4,763.8c-4.1-6.6-7.8-12.9-11.7-18.9c-1.6-2.4-1.8-3.8,0.8-5.6c2.8-2.1,4.9-4.8,5.6-8.5c2.3-12.1-4.2-20.8-16.5-21.4
	c-6.9-0.3-13.9,0.8-20.9,0.9c-4,0-5,1.6-4.7,5.4c1.2,15.2,2.2,30.5,3.2,45.8c0.2,3.1-0.1,6,4.7,5.6c7.4-0.7,7.4-0.5,7-6.2
	c-0.2-3.3-0.7-6.6-0.7-9.9c0-1.9-1.5-4.9,1.9-5.2c3-0.3,6.5-2,8.7,2.2c2.5,4.8,5.6,9.4,8.4,14.1c1,1.6,1.8,3.1,4.2,2.8
	C1341.4,764.3,1344.5,764.2,1348.4,763.8z M1269.9,764.3c10.5,0,17.7-5,19.6-14.8c2.2-11.6,3.7-23.3,5.5-35c0.2-1.2,0.8-3.2-0.7-3.6
	c-3-0.9-6.3-1.8-9.2-1.4c-2.1,0.3-1.6,3.6-1.9,5.6c-1.8,10.8-3.3,21.7-5.2,32.5c-0.8,4.5-3.3,7.5-8.4,7.5
	c-7.8,0.1-11.6-3.6-10.7-11.4c1.4-11,3.1-22.1,5-33c0.6-3.7-0.5-5.4-4.1-5.4c-3.1,0-7.2-2.7-7.8,3.8c-0.9,9.8-2.1,19.6-4.3,29.1
	C1243.9,754.6,1255.3,764.5,1269.9,764.3z M1219.5,752.3c11.8,0,18.7-7.3,17.4-16.6c-0.8-5.9-4.6-10.1-9.2-13.7
	c-3.6-2.9-7.8-5.2-10.4-9.2c-2-3.2-1-7.1,2.2-8.3c4.8-1.9,14.8,0.9,14.2,8.6c-0.1,1-0.5,2.3,0.6,2.7c3.1,0.9,6.4,4,9.2,2.5
	c2.6-1.4,1.5-5.4,0.9-8.3c-0.6-2.6-1.9-4.9-3.6-7c-5.7-6.7-18.1-10.2-26.4-7.3c-8.4,2.8-12.1,12-7.9,19.8c1.7,3.3,4.1,6,6.9,8.4
	c3.4,2.7,6.9,5.2,9.9,8.3c3.7,3.8,2.2,9.5-2.5,10.8c-6.3,1.7-14-3.8-14.1-10.3c0-1.1,0.8-2.6-0.7-3.1c-3.2-1-6.8-4.2-9.6-2.4
	c-2.5,1.6-1.7,5.8-0.6,8.9c0.7,2,1.7,4,2.9,5.7C1204.5,749,1212.5,751.7,1219.5,752.3z M1190,680.9c-0.3-2.9-4.6-2.6-7-4.6
	c-1.9-1.5-3.3-0.5-4.7,0.8c-11.8,10.8-23.6,21.5-35.3,32.3c-7.1,6.5-6.8,7.1,2.3,10.6c4.2,1.7,5.1-2.4,6.9-4.1
	c2.8-2.8,4.9-3.7,8.5-1.3c3.1,2.2,6.7,3.8,10.2,5.2c3,1.2,3.3,2.9,2.7,5.8c-1.8,8.3-1.6,8.1,5.7,12c3.4,1.8,4.2,0.7,4.5-2.5
	c1-8.9,2.1-17.8,3.2-26.7C1187.9,699.8,1188.9,691.1,1190,680.9z M1397.9,748.8c0.3-4.9-2.7-7.4-7.3-6c-3.2,1-6.4,1.8-9.5,2.8
	c-10.7,3.4-10.7,3.5-13.6-7.4c-0.1-0.3-0.2-0.6-0.3-0.9c-0.6-2.4,0.1-3.6,2.6-4.3c5-1.2,9.9-2.9,14.8-4.2c2.1-0.6,2.7-1.6,2.3-3.9
	c-0.8-4.3-2.3-6.3-6.9-4c-2.2,1.1-4.8,1.4-7.1,2.1c-9.5,2.8-9.4,2.8-11.9-6.9c-0.8-2.9,0.1-3.6,2.7-4.3c5.9-1.5,11.7-3.7,17.7-5.1
	c3.6-0.8,3.6-2.6,2.6-5.3c-0.9-2.3-0.8-5.2-5.1-3.8c-9.6,3.2-19.4,5.8-29.1,8.5c-2.4,0.7-3.2,1.8-2.5,4.2
	c4.7,15.7,9.4,31.4,14.1,47.2c0.7,2.6,1.9,3.3,4.5,2.5c9.7-3,19.4-5.9,29-8.8C1396.2,750.9,1397.8,750.8,1397.9,748.8z M1132,644.7
	c-1.6,0-1.9,1.3-2.5,2.2c-9.3,13.8-18.5,27.6-27.9,41.4c-1.4,2-1.1,3.1,0.8,4.3c8.7,5.8,17.5,11.6,26.1,17.6
	c3.6,2.5,4.2-0.8,5.6-2.5c1.5-1.8,2.4-3.4-0.5-5.1c-3.3-1.9-6.4-4.2-9.6-6.3c-9.9-6.6-9.8-6.6-2.8-16.4c1.5-2.1,2.5-2.5,4.6-1
	c4.2,3,8.6,5.6,12.8,8.7c2.3,1.7,3.3,1.2,5-1c2.8-3.5,2.6-5.6-1.5-7.6c-2.2-1.1-4.1-2.8-6.2-4.2c-8.4-5.6-8.4-5.5-2.2-13.9
	c1.5-2,2.7-2.4,4.8-0.8c5.1,3.7,10.6,6.9,15.6,10.7c2.8,2.1,4,1.1,5.2-1.4c1.1-2.1,4.1-3.8,0.2-6.3c-8.7-5.6-17.2-11.5-25.7-17.2
	C1133.4,645.6,1132.7,645.1,1132,644.7z"/>
<path class="st4" d="M1520,59.3c2.1,14.9,4.3,29.9,6.4,44.8c2.5,17.4,5.1,34.8,7.6,52.2c2.4,16.6,4.6,33.2,7.2,49.7
	c0.5,3.3-0.5,4-3.4,4.4c-18.4,2.6-36.8,5.2-55.1,7.9c-18.5,2.7-37,5.6-55.6,8.4c-8.2,1.2-16.4,2.5-24.6,3.8
	c-0.8-0.3-1.6-0.5-2.3-0.9c-35.9-17.8-73.6-26.1-113.8-22.4c-23.6,2.2-46,8.3-67.4,18.2c-24.7,11.4-45.9,27.8-65.2,46.8
	c-14.9,14.7-29.9,29.4-44.9,44.1c0-47.3-0.1-94.5,0-141.8c0-5.1-1.3-6.4-6.4-6.4c-45.6,0.2-91.2,0.1-136.8,0
	c16.5-16.2,32.7-32.7,49.4-48.6c21.1-20.1,43.7-38.3,68.1-54.3c46.5-30.6,96.9-51.1,151.9-60.1c33.8-5.6,67.8-6.3,101.9-3
	c47.4,4.6,93,16.4,136.9,34.6C1489.9,43.1,1505.4,50.2,1520,59.3z M1199.7,136.5c-0.3-6.2-2.2-12.9-6-18.8
	c-6.2-9.6-15.9-13.4-27.2-10.6c-5.1,1.3-10.1,3.3-15.2,4.6c-2.9,0.7-3.1,1.9-2.3,4.5c5.1,15.7,10.1,31.5,15.1,47.2
	c0.7,2.1,1.5,2.8,3.9,1.9c4.9-1.8,10.1-2.9,15.1-4.8C1193.3,156.9,1199.6,147.9,1199.7,136.5z M1367.8,89.3c-3.2,0-8.4,1.9-12.6,6.1
	c-8.7,8.9-10.8,20-9.3,31.7c1.3,10.9,9,18,20,19.8c9.8,1.6,19.3-3.7,24-13.2c3.2-6.4,4.4-13.3,4.3-20.3
	C1394.1,99.2,1384.3,89.4,1367.8,89.3z M1240,96.6c-0.2-6.7-0.9-7.2-7.3-5.9c-8.9,1.9-17.9,3.8-26.8,5.3c-3.1,0.5-4.1,1.2-3.4,4.7
	c3.4,15.7,6.5,31.5,9.4,47.3c0.6,3.4,2,3.8,5,3.1c9.7-2.1,19.5-4,29.3-5.9c2.4-0.5,4.3-0.8,3-4c-1-2.4,0.5-6.5-4.8-5.2
	c-6.1,1.5-12.3,2.6-18.5,3.8c-1.8,0.4-4,0.7-4-2.1c0.1-4.2-4-8.2-0.6-12.5c0.3-0.4,1.3-0.2,1.9-0.3c4.7-1,9.4-2.2,14.2-2.8
	c3.6-0.5,3.6-2.1,3.2-5.1c-0.5-4-2.2-5-5.9-3.9c-2.7,0.8-5.5,1.3-8.3,1.8c-9,1.8-8.8,1.7-10.6-7c-0.6-3.2,0.1-4.5,3.4-5
	c6.1-1,12.1-2.4,18.1-3.6C1238.9,99.1,1240.9,99.1,1240,96.6z M1270.8,86c-6.5,0.5-12,1-17.4,1.3c-1.9,0.1-3,0.5-2.8,2.9
	c1.6,16.9,3,33.7,4.4,50.6c0.1,1.1-0.1,2.8,1.5,2.7c3.3-0.1,6.8,0,9.7-1.2c1.7-0.7,0.2-4,0.2-6.1c0-0.3-0.1-0.7-0.1-1
	c-0.3-3.9-2-8.9-0.3-11.5c1.4-2.1,7.1-1.2,10.8-1.7c7.4-1,14-3.6,17-11.1c2.7-6.6,1.6-13.2-3-18.7
	C1285.2,85.7,1277.6,85.2,1270.8,86z M1407.3,97.4c0.8,6.4,1.3,12.4,2.3,18.2c2.2,12.7,3.9,25.3-3,37.2c-0.3,0.6-0.5,1.2-0.6,1.9
	c0,0.6,0,1.6,0.4,1.8c3,1.2,6.1,3,9.3,3.2c2.2,0.2,2.2-3.3,2.9-5.1c2.7-7.8,5.4-15.2,12.6-20.7c7.7-5.9,14.4-13.2,21.7-20
	c-2.2-0.9-4-1.3-5.5-2.2c-4.5-2.5-7.7-1.3-11,2.6c-4.3,5-9.3,9.3-14.8,14.7c-0.6-8.1-1.1-15.3-1.8-22.5c-0.2-2.2,0.3-4.8-2.7-5.8
	C1413.9,99.6,1410.8,98.6,1407.3,97.4z M1323.4,141.2c0,0,0-0.1,0-0.1c4.3,0.2,8.7,0.2,12.9,0.8c4.9,0.7,4.2-2.4,4.5-5.4
	c0.4-3.4-0.9-4.3-4.1-4.3c-5.5,0-11-0.6-16.4-0.6c-3.5,0-3.9-1.4-3.8-4.6c0.7-12.8,1-25.6,1.6-38.4c0.1-3.1-0.5-4.8-4-4.4
	c-1.3,0.2-2.7,0-4-0.1c-2.7-0.4-3.7,0.6-3.8,3.5c-0.5,16.4-1.2,32.9-2,49.3c-0.1,2.6,0.6,3.6,3.3,3.6
	C1312.7,140.7,1318,141,1323.4,141.2z"/>
<path class="st5" d="M550.9,580.1c47.3,0,94.6,0,141.9,0c7.1,0,7.1,0,7.1,6.9c0,42.8,0,85.6,0,128.4c0,2.3,0.1,4.7,0.2,7
	c-11.9,12.1-25.5,22.3-39.1,32.3c-37.2,27.5-77.7,48.7-122,62.5c-24.3,7.5-49.1,12.5-74.4,15.1c-19.4,2-38.9,2.4-58.3,1.5
	c-26.4-1.2-52.5-5.1-78.2-11c-38.4-8.9-75.4-21.8-110.5-39.9c-17.8-9.2-35.2-19.2-51-31.7c19.9-2.8,39.7-5.5,59.6-8.4
	c26.4-3.8,52.8-7.9,79.2-11.7c8.5-1.2,8.5-0.9,7.6-9.7c-0.1-1.5-0.3-3-0.5-4.4c-2.8-19-5.7-38-8.5-57c-2.5-17.4-5.2-34.7-7.4-52.1
	c-0.9-6.7-3.2-13.1-2.4-20c10.2,6.5,20.2,13.3,31.2,18.4c21.9,10.2,44.7,17.1,68.8,19.9c25.6,3,50.6,1.1,75.4-5.2
	C499.7,613.6,526.6,599.5,550.9,580.1z M468,733.9c1,0.1,2,0.3,2.7-0.8c0.9-1.7,0.2-3.3,0.1-5c0-1,0.6-2.2-0.8-2.8
	c-1.7-0.6-3.4-0.2-5,0c-1.7-0.2-3.4,0-4.9,0.8c-1.4,0.1-2.7,0.1-4.1,0.2c-1.7-0.2-3.4,0-4.9,0.8c-1.6,0-3.1-0.2-3-2.4
	c0.3-3.8-1.9-7.4-0.5-11.2c0.1-0.4,1.5-0.3,2.3-0.4c4.4-0.4,8.8-0.7,13.3-1.1c9.1-0.9,9.7-1.4,8.9-8.2c-0.2-1.7-0.2-2.3-2.6-2
	c-10.9,1.4-21.9,2.3-32.8,3.3c-2.2,0.2-3.1,1-2.6,3c1.4,4.9,1.4,10,2,15.1c1.4,11.7,2.7,23.5,4,35.2c0.2,2,0.6,3,3,2.7
	c10.8-1.1,21.5-2.1,32.3-3.1c0.9-0.1,1.7-0.2,1.7-1.3c0-2.5,0.6-5.3-0.2-7.4c-0.9-2.1-3.5,0.4-5.3-0.3c-0.4-0.2-1,0.1-1.5,0.2
	c-1.7-0.2-3.4,0-4.9,0.8c-1.4,0.1-2.7,0.1-4.1,0.2c-1.7-0.2-3.4,0-4.9,0.8c-1.7-0.6-3.9,1-5.3-1c0.2-1.7,0-3.4-0.8-4.9
	c-0.1-1.4-0.1-2.7-0.2-4.1c0-1.7,0-3.3,0-5C455.8,735.4,461.9,734.7,468,733.9z M502.3,751.2c4.7,0.2,9.4-1,13.7-3.2
	c7.8-3.9,11.1-9.5,10-17.2c-0.9-6.6-6.5-11.1-14.7-12.8c-5.7-1.2-11.7-0.1-17.3-1.9c-2.2-0.7-3.7-2-4.2-4.4
	c-0.5-2.5,0.3-4.6,2.3-6.2c4.7-3.8,11-3.3,14.9,1.3c0.5,0.6,0.9,1.6,1.8,1.5c3.4-0.5,7.6-0.8,9.6-3.2c1.2-1.5-1.7-4.9-3.8-6.9
	c-5.7-5.4-15.4-6.4-24.3-2.3c-8.6,3.9-13,10.4-12.1,17.5c0.9,7,6,11.2,15.5,13.1c5.1,1,10.3,0.1,15.4,1.6c5,1.4,7.3,6,4.7,9.8
	c-3.7,5.6-14.5,5.6-18-0.1c-1.1-1.8-1.9-2.4-3.8-1.7c-1.7,0.6-3.5,1.1-5.3,1.5c-3.5,0.6-3.1,2.4-1.7,4.8
	C488.7,749.1,494.7,751.4,502.3,751.2z M413.7,714.6c5.4,0.2,10,0.3,14.7,0.7c5.1,0.4,1.9-3.5,2.7-5.2c0.8-1.7,1.3-3.8-2.2-4.1
	c-13.2-0.8-26.5-1.9-39.7-2.9c-2.6-0.2-3.3,0.8-3.6,3.2c-0.8,6.3-0.9,6.3,5.2,6.7c2.2,0.1,4.3,0.3,6.5,0.2c3.6-0.2,5,1,4.7,4.8
	c-1.1,12.4-1.4,24.9-2.9,37.2c-0.8,6.6,3.3,5.2,6.8,5.9c4.4,0.9,5-1.3,5.2-5.1C411.7,742.2,412.8,728.5,413.7,714.6z M564.6,727.6
	c-0.7-1.5-1.2-2.9-1.9-4.2c-5.3-11.4-10.6-22.8-16-34.2c-1.3-2.7-1.1-4.1,1.9-5.1c3.4-1.2,6.6-3,10-4.4c3.2-1.3,1.4-3.3,0.4-4.7
	c-1-1.5-0.4-5.5-4.2-3.7c-12.5,5.7-24.9,11.6-37.4,17.4c-0.8,0.4-1.7,0.6-1.6,2.1c0.6,5.1,3.7,6.9,8.5,4.7c2.1-1,4.4-1.6,6.3-2.9
	c3.5-2.4,4.7-0.6,6,2.4c5.3,11.6,10.9,23.1,16.1,34.7c1.4,3.2,2.9,3.6,5.7,2.1c1.4-0.8,3-1.5,4.5-2.2
	C563.7,729,564.9,728.8,564.6,727.6z"/>
<path class="st2" d="M294.2,588.1c-0.8,6.9,1.5,13.3,2.4,20c2.2,17.4,4.9,34.7,7.4,52.1c2.8,19,5.6,38,8.5,57c0.2,1.5,0.4,3,0.5,4.4
	c0.9,8.7,0.8,8.4-7.6,9.7c-26.4,3.8-52.8,7.8-79.2,11.7c-19.8,2.9-39.7,5.6-59.6,8.4c-13.1-8.6-24.9-18.8-36.3-29.5
	c-43.8-41.3-75.8-90.5-97.8-146.3C18,538.3,7.5,500,2.7,460.2C-4.5,399.9,2.8,341.3,22.5,284c0.1-0.3,0.4-0.5,0.6-0.8
	c8.3,19,16.6,38,24.8,57.1c9.6,22.3,19,44.6,28.7,66.9c4.6,10.6,4.8,10.2,15.6,5.5c27.6-12,55.2-23.8,82.9-35.6
	c13.3-5.7,26.6-11.2,39.9-16.8c-0.2,1.3-0.4,2.6-0.7,3.9c-6.6,28-9.3,56.4-5,85c6.7,44.2,26,82.2,56.9,114.4
	C274.8,572.5,284.5,580.3,294.2,588.1z M118.3,498.9c5.6,5.6,11.8,5.9,17.9,2.1c6.4-3.9,7.3-10.4,6-17.1c-1.4-7-3.3-13.9-4.9-20.9
	c-0.5-2.2-1.2-3.1-3.7-2.4c-16.4,4.3-32.8,8.4-49.2,12.5c-1.4,0.4-2.6,0.6-2,2.6c2.6,8.4,3.5,17.2,7.2,25.3
	c3.4,7.3,8.5,10.5,15.1,10C111.9,510.3,116.8,506.8,118.3,498.9z M178.1,667c12.4,0,26.2-10,29.9-20.8c1.5-4.3,2-8.6,1-13.2
	c-2.2-9.5-9.6-15.7-14.9-23.3c-1.2-1.7-2.3,0.2-3.2,0.9c-13.3,10.2-26.6,20.4-40,30.5c-1.9,1.4-1.7,2.3-0.4,3.9
	c3.1,3.9,6,7.9,9.2,11.8C164.7,663.2,171.1,666.9,178.1,667z M100,537.1c-0.4,3.4,0.8,6.9,2.2,10.2c5.1,12.2,14,16.1,26.5,11.9
	c9.1-3.1,18.2-6.3,27.3-9.4c6.9-2.4,6.9-2.4,4.3-9.4c-0.1-0.2-0.1-0.3-0.2-0.5c-0.7-2.7-1.8-3.5-4.9-2.3c-10.4,3.9-20.9,7.5-31.4,11
	c-6.7,2.2-11.4,0.2-13.4-5.5c-2.2-6.2,0.1-10.7,6.9-13.1c10.3-3.7,20.6-7.4,31-10.8c3.3-1.1,4.3-2.4,2.7-5.6
	c-0.6-1.2-0.9-2.5-1.3-3.7c-0.7-2.4-1.9-3.1-4.4-2.2c-11.1,4-22.3,7.6-33.4,11.8C104,522.3,100,528.5,100,537.1z M173.7,574.4
	c-0.4,0.2-0.9,0.4-1.3,0.7c-15,8.1-30,16.3-45,24.4c-2.1,1.1-1.8,2.1-0.8,3.9c4.9,8.8,9.7,17.7,14.4,26.7c1.9,3.7,3.7,1.2,5.5,0.3
	c1.9-1,4.7-1.3,2.6-4.8c-2.9-4.8-5.3-9.9-8.2-14.8c-1.7-2.8-2.2-4.4,1.5-6.3c11.5-5.8,22.7-12.4,34.1-18.4c3.1-1.6,3.8-3.1,1.7-5.9
	c-1-1.3-1.6-2.9-2.4-4.3C175.3,575.2,175.1,574,173.7,574.4z M120.4,587.8c0.3-0.1,0.6-0.3,0.9-0.4c15.9-7,31.8-14,47.8-20.9
	c1.7-0.7,1.7-1.6,1-3.1c-0.8-1.5-1.6-3-2-4.5c-0.8-3.7-2.7-3.5-5.6-2.2c-14.5,6.5-29.1,12.9-43.7,19.1c-3.1,1.3-4.1,2.7-2.4,5.7
	c0.9,1.6,1.6,3.3,2.3,5C119.1,587.2,119.3,588.1,120.4,587.8z"/>
<path class="st6" d="M861.2,271.8c-0.9,1.1-1.8,2.4-2.9,3.4c-47.6,47.7-95.3,95.3-142.9,142.9c-0.7,0.7-1.5,1.3-2.3,2
	c-2.7-3-5.3-6-8-8.8c-27.4-28.8-54.6-57.8-82.4-86.2c-24.7-25.2-48.8-51-76-73.5c-2-13.8-6-27.2-9.2-40.8
	c-7.8-33.6-15.8-67.2-23.8-100.8c-0.9-3.9,0-5.2,3.8-6.1c41.8-9.8,83.6-19.8,125.4-29.9c2.1-0.5,4.8,0,5.9-2.8
	c20.8,13.3,40.2,28.5,57.6,45.8C758.4,168.4,809.7,220.2,861.2,271.8z M733.5,312.7c-0.4-0.3-0.7-0.5-1.1-0.8
	c2.7-10.9,5.1-22,8.3-32.8c1.6-5.3,0.1-8.6-3.5-12.1c-2.6-2.5-3.9-2.2-6.2,0.2c-10.7,10.8-21.5,21.3-32.3,32
	c-4.7,4.6-4.4,4.4,0.1,9.5c2.9,3.3,4.6,2.7,7.2-0.2c6.7-7.5,13.8-14.7,20.7-22c0.5,0.4,0.9,0.8,1.4,1.2c-2.7,11.1-5,22.4-8.4,33.3
	c-1.7,5.7-0.5,9.2,3.8,12.8c2.3,1.9,3.3,2.1,5.5-0.1c10.9-11,21.7-22.1,33-32.7c3.5-3.3,4-5.2,0.4-8.6c-3-2.9-4.7-3.9-8-0.3
	C747.7,299.2,740.5,305.8,733.5,312.7z M652.8,262.7c2.8,2.6,5.1,4.6,7.1,6.8c1.6,1.7,2.8,1.5,4.7,0.6c8.5-4.2,8.6-4.1,15.3,2.6
	c0.5,0.5,0.9,0.9,1.4,1.4c6,6,5.9,5.9,2.3,13.4c-0.8,1.6-2.8,3.1-0.7,5.3c2.3,2.4,4.3,5,6.9,8.1c8.6-18.7,16.6-36,24.6-53.3
	c1.8-3.9-2.2-4.6-3.7-6.6c-1.1-1.6-2.3-3.4-5.3-2.1C688.4,246.8,671.1,254.5,652.8,262.7z M637.1,207.6c4.5,0.1,9.4-3.2,12.9-8.8
	c4.1-6.5,3.5-13.1-0.5-19.2c-4.9-7.4-12.1-12.8-18-19.3c-1.9-2.2-2.9,0-3.9,1c-11.6,11.5-23.1,23-34.8,34.4c-2.4,2.3-2.3,3.5,0,5.7
	c5.5,5.2,5.4,5.3,10.9,0.1c0.8-0.8,1.7-1.6,2.5-2.5c6.3-6.3,6.3-6.3,12.4-0.1C623.1,203.4,627.9,207.3,637.1,207.6z M651.8,260.8
	c1.8-2,3.6-3.7,5-5.7c1.2-1.8-1-2.5-1.9-3.5c-3.9-4.1-7.7-8.3-11.8-12.1c-2.3-2.1-2.1-3.3,0-5.4c9.2-8.9,18.1-18.1,27.4-26.9
	c2.8-2.7,3.1-4.5,0.1-6.9c-0.9-0.7-1.8-1.5-2.5-2.5c-1.6-2.1-2.9-2.1-4.8-0.2c-11.9,11.9-23.8,23.8-35.7,35.5c-1.6,1.5-1.6,2.5,0,4
	c7.3,7.3,14.6,14.6,21.8,21.9C650,259.5,650.7,260,651.8,260.8z"/>
<path class="st6" d="M1140,548.1c-45.3,0-90.7,0.1-136-0.1c-4.8,0-6.1,1.3-6.1,6.1c0.2,48,0.1,96,0.1,144
	c-7.6-7.4-15.3-14.7-22.9-22.2c-36.8-36.6-73.5-73.3-110.3-110c-0.9-0.9-2-1.8-2.9-2.7c1.2-1.4,2.3-2.8,3.6-4.1
	c47.4-47.5,94.9-94.9,142.3-142.3c1.4-1.4,3-2.6,4.5-3.9c5.3,5.5,10.5,11,15.7,16.6c27.9,29.9,55.2,60.3,83.8,89.6
	C1121.3,528.8,1130.6,538.5,1140,548.1z"/>
<path class="st7" d="M294.7,107.2c3.4,0.3,7.1,1,10.5,2.9c15.6,8.3,21.1,31.2,10.4,44.1c-4.4,5.3-10.9,7.4-16.8,10.3
	c-8.1,3.9-8.1,3.9-11.7-4c-6-12.9-11.9-25.9-18.1-38.8c-1.7-3.5-1.5-5.2,2.4-6.6C279,112.4,285.8,107.4,294.7,107.2z M293.4,116.8
	c-3.9,0.1-6.9,1.5-9.9,2.9c-1.5,0.7-1.9,1.4-1.1,3c4.8,10,9.5,20.1,14.1,30.2c0.7,1.5,1.3,1.8,3,1.3c8.8-2.8,12.6-9.6,10-18.6
	c-1.1-3.9-2.6-7.6-4.8-10.9C302.1,120.4,298.6,116.9,293.4,116.8z"/>
<path class="st7" d="M276.1,166.3c0.1,10.1-5.1,16.9-13.9,21.1c-8.9,4.2-17.2,2.4-24.5-3.6c-5.7-4.7-10-10.7-12.6-17.7
	c-4.3-11.3-1.4-21.8,7.2-28c10.2-7.2,20-6.8,30.1,1.5C270,145.8,276,157.6,276.1,166.3z M234,154.2c-0.1,8,9.2,21.7,16.6,24.6
	c7.9,3,16.1-3.3,14.6-11.7c-1.6-9.4-6.9-16.9-14.9-22C243.2,140.4,234.1,145.8,234,154.2z"/>
<path class="st8" d="M361,113.6c0.2,2-1.4,1.8-2.3,2.1c-4.9,1.5-9.9,3-14.8,4.4c-2.7,0.7-3.7,1.8-2.8,4.9c3.1,10.8,3,10.8,13.7,7.6
	c4-1.2,8-2.3,11.9-3.5c4.7-1.4,3.2,2.9,4.3,4.7c1.1,1.8,1.5,3.5-1.6,4.4c-10.4,3-20.7,6.1-31,9.4c-1.9,0.6-2.6,0.1-3.2-1.7
	c-4.9-16.4-9.8-32.8-14.8-49.1c-0.7-2.2,0.3-2.6,1.9-3.1c10.3-3.1,20.6-6.3,31-9.4c3.5-1.1,3.4,1.7,3.8,3.6c0.4,1.9,3,4.3-1.1,5.5
	c-6.2,1.8-12.4,3.9-18.6,5.6c-2.8,0.7-3.8,1.4-2.7,4.7c3.1,9.2,2.8,9.2,11.9,6.4c2.4-0.7,4.8-1.4,7.2-2.1
	C358.5,106.6,361.4,108.9,361,113.6z"/>
<path class="st7" d="M234.2,199.7c-0.4,17.7-19.5,28.8-34.3,20.2c-8.2-4.8-14.6-11.6-18.6-20.2c-4.3-9.2-1.6-19.3,6.8-26.4
	c8.4-7.1,17-7.7,25.6-2.1c2.4,1.6,3.1,2.7,0.6,4.7c-1.4,1.1-2.9,2.3-4,3.7c-1.4,1.6-2.4,1.4-4.1,0.3c-4.9-3.1-8.1-2.6-12.6,1.3
	c-3.9,3.5-5.1,7.9-2.7,12.6c3.7,7.3,9.4,12.9,16.1,17.3c4.4,2.8,9,2,12.7-1.7c3.6-3.5,5.6-7.5,2.4-12.4c-2.3-3.4,1-4.3,2.6-5.8
	c5.1-4.9,5.5-4.7,8.2,1.8C234.1,195.3,234,197.8,234.2,199.7z"/>
<path class="st8" d="M786.4,544.7c-2.5,2.6-4.7,4.8-6.7,7.2c-1.5,1.8-3,1.6-4.8,1c-5.2-1.7-10.6-2.9-15.6-5.1
	c-5-2.2-6.7,1.6-8.8,4.2c-2.2,2.6,1.3,3.6,2.5,4.9c3.4,3.7,7.1,7,10.9,10.7c-3,2.8-5.8,5.4-9,8.4c-12.2-12.3-24.5-24.9-37-37.4
	c-1.9-1.9-1.8-2.9,0-4.7c4.9-4.7,9.5-9.7,14.5-14.4c6.7-6.2,13.6-7.6,19.9-4.4c7.6,3.9,10.7,9.8,9.4,19.4c-0.4,2.7,1.1,2.7,2.6,3.1
	C771.6,540,778.8,542.3,786.4,544.7z M744.8,524.9c-4.8-0.1-6.9,2-9.1,4.1c-5.5,5.4-5.5,5.4-0.2,10.7c7.9,7.9,8.3,7.8,15-1.3
	c2-2.7,2.4-5.5,0.8-8.4C749.5,527,747,525,744.8,524.9z"/>
<path class="st8" d="M911.7,347.2c0.3,0,1.5,0,2.6,0.3c2.9,0.8,7.2,1.9,6.9,4.5c-0.3,3.1-4.2,5.3-6.9,7.5c-0.9,0.8-1.8-0.5-2.7-0.8
	c-6.1-2.3-12.9,2.2-13.2,8.7c-0.2,3.8,1.6,5.9,5.6,5.9c3.1,0,5.7-1.5,8.4-2.8c4.8-2.3,9.4-4.9,14.9-5.5c11.1-1.1,19.3,8.8,15.7,19.3
	c-3.5,10.1-10.9,16-21.1,18.5c-1.9,0.5-4,0.4-5.9,0c-3.2-0.7-7.7-1.7-7.8-5c-0.1-2.8,4-4.9,6.4-7.2c1.2-1.2,2.1,0.3,3.1,0.7
	c6,2.7,14.7-2.3,15.4-8.9c0.5-4.7-3.8-7.9-8.7-6.2c-3.7,1.3-7.3,3.2-10.9,4.9c-3.6,1.8-7.3,3-11.5,3c-10.4-0.1-17.1-9.4-13.6-19.2
	C892,354.8,901.7,347,911.7,347.2z"/>
<path class="st8" d="M880.1,450.2c-2.4-8.4-7-16-10.5-24c-4.1-9.4-8.4-18.7-13-27.9c-1.5-3,0-4.4,1.8-5.8c2.2-1.7,3.2-5.5,7.7-3.5
	c17,7.9,34.1,15.5,51.6,23.4c-2.6,2.7-5,5.1-7.2,7.6c-1.6,1.8-3,0.5-4.4-0.2c-8.5-3.9-8.5-4-15,2.6c-0.4,0.4-0.7,0.7-1.1,1.1
	c-6.2,6.2-6.4,6.3-2.3,14.1c1.4,2.8,1.1,4.5-1.2,6.4C884.3,445.9,882.2,448.1,880.1,450.2C880,450.1,880.1,450.2,880.1,450.2z
	 M869.3,401.7c3.7,7.2,6.8,13.3,9.9,19.2c3.5-3.3,6.6-6.2,10.1-9.5C882.9,408.3,876.8,405.3,869.3,401.7z"/>
<path class="st7" d="M880,450.1c-5.3,7.3-12.4,13-18.6,19.5c-2.7,2.9-5.4,7.9-8.6,7.6c-3-0.2-5.8-4.9-8.7-7.7
	c-9.6-9.5-19.1-19.1-28.8-28.5c-2-1.9-2.2-2.8-0.1-4.9c7.4-7.2,14.7-14.5,21.7-22.1c3-3.3,4.1-0.3,5.7,1.1c1.7,1.6,4.2,2.8,0.9,5.7
	c-4.8,4.2-9,8.9-13.5,13.3c-1.7,1.6-2.3,2.6-0.3,4.7c7.4,7.8,7.3,7.9,15,0.2c1.5-1.5,3.2-3,4.5-4.7c2.6-3.4,4.7-3.7,7.6-0.2
	c1.8,2.2,2.5,3.3,0.1,5.5c-3.8,3.4-7.2,7.4-11,10.9c-1.8,1.7-1.7,2.5-0.1,4.3c8.3,8.9,8.2,9,16.7,0.4c2.6-2.6,5.4-5,7.7-7.8
	c2.1-2.5,3.5-2.1,5.5,0.1C876.7,448.9,877.5,451.5,880,450.1C880.1,450.2,880,450.1,880,450.1z"/>
<path class="st7" d="M961.8,332.1c0,2-1,2.5-1.7,3.2c-3.5,3.6-7,7.1-10.5,10.7c-0.6,0.6-1.7,1.2-1.7,1.8c0,5.1,5.2,6.4,7.5,9.9
	c1.2,1.9,2.5,1.5,3.9,0c4.6-4.8,9.5-9.3,14-14.2c3.9-4.2,4.7,1,6.8,2.1c2.7,1.4,1.6,2.8,0,4.4c-7.4,7.2-14.7,14.5-21.9,21.9
	c-1.9,2-3,2.2-5.1,0.1c-11.6-11.7-23.2-23.4-35-34.9c-2.1-2-1.9-2.9,0.1-4.9c7.1-7,14.2-14,20.9-21.4c2.9-3.3,4.2-1.6,6.5,0.4
	c2.8,2.4,3,3.9,0.1,6.5c-4.5,3.9-8.5,8.4-12.8,12.6c-1.6,1.6-2.3,2.6-0.3,4.7c7.4,7.8,7.3,7.9,14.9,0.2c1.8-1.8,3.4-3.7,5.2-5.3
	c1.1-1,1.8-3.5,3.8-2.2C958.7,329,960.4,330.9,961.8,332.1z"/>
<path class="st8" d="M750.9,499.9c8.1-7.8,16.5-15.7,24.5-23.8c2.8-2.9,3.9-0.6,5.3,0.9c1.5,1.6,4.5,2.7,1.2,5.7
	c-4.9,4.5-9.4,9.4-14.2,14c-1.5,1.5-1.6,2.3-0.1,3.9c7.4,8.3,7.4,8.3,15.2,0.5c1.4-1.4,3-2.7,4.1-4.3c2.8-4,5.1-4,8.3-0.2
	c1.7,2.1,2,3-0.1,5c-3.8,3.5-7.1,7.5-10.8,11c-2,1.9-1.7,3,0,4.8c7.9,8.4,7.9,8.5,16,0.4c2.7-2.7,5.6-5.3,8.1-8.2
	c3.9-4.5,5,0.7,7.2,1.9c3.3,2,0.7,3.4-0.7,4.7c-7.2,7.2-14.4,14.3-21.5,21.6c-1.7,1.7-2.8,2.2-4.7,0.2
	C776.4,525.5,763.9,513,750.9,499.9z"/>
<path class="st8" d="M790.5,460.8c1,0.9,2,1.8,2.9,2.7c9.2,9.1,18.5,18.2,27.6,27.5c2.5,2.6,3.9,2.4,6.2-0.1
	c3.9-4.3,8.3-8.1,12.2-12.5c2.1-2.3,3.5-1.3,4.5,0.5c1,1.9,5.9,2.4,2.3,6c-7.3,7.3-14.6,14.5-21.9,21.9c-1.7,1.7-2.6,1.1-4-0.3
	c-11.9-11.9-23.8-23.7-35.8-35.5c-1.5-1.5-1.8-2.4-0.1-4C786.6,465.1,788.4,463,790.5,460.8z"/>
<path class="st7" d="M1589,453.7c11.8,8.4,22.9,16.3,34,24.2c3.7,2.6,7.2,5.4,11,7.8c2.6,1.6,3.5,3.2,2.3,6
	c-1.3,2.9-0.6,6.7-5.8,7.1c-15.7,1.1-31.4,3-47.2,4.3c-2.8,0.2-5.5,1.4-8.6,0.7c0.3-1.2,0.6-2.3,0.9-3.3c2-7.9,2-8,9.9-8.6
	c3.3-0.2,5.2-1.1,5.7-4.7c0.4-2.9,1-6,2.3-8.7c2.6-5.4,0.9-8.7-4.2-10.8c-3.6-1.5-4.5-3.8-3.1-7.4c2-5,2.1-10.4,2.5-15.7
	c0.2-2.4,1-3.8,3.5-4.7c4.8-1.7,9.5-3.9,14.2-6c1.8-0.8,3.5-1.4,3.8-4c0.7-6.6,0.9-6.6-5.8-7.3c-3.6-0.4-7.3-0.6-11-0.6
	c-2.6,0-3.5-0.9-3.3-3.5c0.6-8.5,0.6-8.4,9.4-7.8c14.4,1.1,28.9,2.1,43.3,2.8c3.5,0.2,4.6,1.2,4.2,4.7c-0.8,6.9-0.9,13.9-1.9,20.8
	c-1,7.2-4.4,13.1-12.1,14.8c-8.5,1.9-14.9-0.7-19.6-8.3c-1.3-2-2.3-2-3.9-1.2c-0.6,0.3-1.2,0.6-1.8,0.9
	C1601.8,448.1,1595.9,450.7,1589,453.7z M1627,424.2c-6.7-0.2-6.6-0.2-7.2,6.4c-0.1,0.8-0.3,1.6-0.4,2.5c-0.4,5.7,2.9,9.7,8.1,10
	c4.7,0.3,7.9-2.9,8.6-8.5C1637.2,424.4,1637.2,424.4,1627,424.2z M1620.4,489.6c0.1-0.3,0.3-0.7,0.4-1c-5.7-3.7-11.4-7.3-17.4-11.1
	c-1.1,4.1-1.9,7.5-3,10.8c-0.7,2.2,0.2,2.7,2.1,2.6C1608.5,490.3,1614.5,490,1620.4,489.6z"/>
<path class="st7" d="M1554.9,284c0-4.4,1.1-8.6,3.8-12.1c7.9-10.1,18-16.2,31.1-16.1c9.4,0.1,15.8,5.4,19.7,13.7
	c3.9,8.3,3.1,16.4-2.8,23.3c-8.3,9.7-18.9,16-32.2,14.5C1562.9,306,1554.9,295.8,1554.9,284z M1564.9,285.5
	c0,6.9,5.5,12.4,11.9,11.4c8.5-1.4,16.1-5.3,22-11.8c3.4-3.7,4.1-8.2,1.4-12.8c-2.6-4.6-6.6-6.3-11.7-5.4
	c-7.8,1.3-14.2,5.3-19.9,10.5C1566.2,279.5,1564.6,282.4,1564.9,285.5z"/>
<path class="st7" d="M1634,331.7c0,11-4.8,17.2-13.1,19.7c-8.1,2.4-14.9-0.3-19.7-7.7c-2.5-3.8-4-8.1-4.9-12.5
	c-0.9-4.2-2.6-4.6-6.1-3.1c-2.3,1-4.8,1.4-7.1,2.2c-8.1,2.5-8,2.5-10.1-6c-0.5-2.1-0.1-2.8,2-3.5c16.1-5.1,32.2-10.3,48.4-15.5
	c1.2-0.4,2.7-1,3.2,1C1629.2,315.6,1633.4,324.4,1634,331.7z M1624.1,331.5c0.3-2.1-0.8-4.4-1.5-6.7c-1.9-6.2-2-6.2-8.2-4.2
	c-11.5,3.6-11.4,3.6-6.7,14.9c1.7,4.1,4.5,5.9,9,5C1621.5,339.4,1624.1,336.5,1624.1,331.5z"/>
<path class="st7" d="M1639.3,361.9c1.8-0.6,2.7,0.3,3,3.2c1.1,10.1,2.3,20.1,3.8,30.1c0.8,5.8-3.7,3.5-6.1,4.4
	c-3.2,1.3-2.9-1.3-3.2-3.2c-0.8-6.6-1.9-13.1-2.6-19.7c-0.3-2.3-1.1-2.5-3.2-2.2c-10,1.3-10,1.2-9.1,11.4c0.3,2.8,0.6,5.6,1,8.4
	c0.4,2.5-0.2,3.5-3.1,4.1c-4.7,1-6.1-0.2-6.1-4.9c0-4.6-1.3-9.2-1.7-13.8c-0.2-2.4-1.3-2.8-3.2-2.5c-1.8,0.3-3.6,0.6-5.4,0.8
	c-7.2,1-7.1,0.9-6.1,8.5c0.7,5.1,1,10.3,1.8,15.3c0.4,2.5-0.4,3.6-2.7,3.3c-2.2-0.3-5.7,2.3-6.2-2.3c-1.4-10.7-2.6-21.4-4-32.1
	c-0.2-1.7,0.3-2.4,2-2.6C1605,366.1,1621.6,364,1639.3,361.9z"/>
<path class="st7" d="M1602.7,575.3c-0.4,0.7-0.7,1.5-1.1,2.2c-5.3,8.8-10.8,17.5-15.9,26.5c-2.7,4.9-4.8,0.8-7,0
	c-2.8-1-2.7-2.5-1.1-4.9c3.6-5.4,6.7-11.1,10.2-16.5c1.2-1.8,0.9-2.7-0.8-3.9c-8.6-6.5-8.7-6.6-14.2,2.5c-1.5,2.6-3.4,5-4.6,7.7
	c-1.3,3-2.5,2.7-5.2,1.5c-4.1-2-4.4-4-1.9-7.5c2.1-3,3.4-6.5,5.8-9.3c3.7-4.3,1.9-6.1-2.2-8.5c-8.1-4.6-8-4.8-12.6,3
	c-2,3.3-3.9,6.5-5.9,9.8c-2.9,4.8-4.9,5-9.2,1.2c-1.6-1.4-0.6-2.2,0.1-3.3c5.4-8.9,10.9-17.9,16.2-26.9c1.4-2.4,2.4-2.7,4.9-1.1
	c14,8.6,28.2,17,42.3,25.4C1601.2,573.6,1602.4,573.8,1602.7,575.3z"/>
<path class="st7" d="M1626.9,522.7c-0.4,1.1-0.7,2.1-1.1,3c-5.1,11.7-10.5,23.3-15.3,35.1c-1.7,4.2-3.8,2.2-6,1.3
	c-2.6-0.9-4.7-2.1-2.5-5.3c0.1-0.1,0.1-0.3,0.2-0.5c1.6-3.8,5.3-8.4,4.2-11.3c-1.4-3.7-7.4-4.2-11.4-6c-8.9-4-17.9-7.9-26.9-11.7
	c-2.7-1.1-4.3-2.3-2.2-5.3c0.7-1.1,1.3-2.4,1.6-3.6c0.8-3,2.1-3.3,5-2c11.9,5.4,24,10.4,36,15.8c2.9,1.3,4.1,0.8,5.2-2
	c1.2-3.2,2.8-6.4,4.1-9.6c0.6-1.5,1.4-2.4,3-1.6C1622.9,520.4,1625.7,520.4,1626.9,522.7z"/>
<path class="st9" d="M1077.1,621.2c-7.8,9.4-15.1,18.1-22.1,27.1c-2.4,3.1-4.3,3.2-6.6,0.4c-1.9-2.3-7-3.1-2.3-8.2
	c10.8-11.7,21-24,31.3-36.2c1.7-2.1,2.7-2.5,5.1-0.6c9.1,7.1,9.1,6.9,5,17.4c-3.8,9.8-7.6,19.6-11.9,30.6
	c11.7-6.7,22.4-12.7,32.9-19c3.3-2,5.4-2.2,8.5,0.6c7.5,7,7.6,6.7,0.8,14.7c-9,10.5-18,20.9-26.9,31.5c-2.1,2.5-3.7,3.2-6.3,0.7
	c-6.6-6.5-6.4-3.9-0.8-10.4c6.8-7.9,13.9-15.4,20.4-23.8c-8.2,4.6-16.4,9.1-24.6,13.7c-2.3,1.3-4.8,2.4-6.9,4
	c-3.1,2.4-5.3,1.6-8.2-0.7c-3.3-2.6-1.1-4.8-0.3-7c4-10.7,8.2-21.4,12.3-32.1C1076.8,623.3,1076.8,622.6,1077.1,621.2z"/>
<path class="st9" d="M1348.4,763.8c-3.9,0.3-7,0.5-10.1,0.9c-2.4,0.3-3.2-1.2-4.2-2.8c-2.8-4.7-5.9-9.3-8.4-14.1
	c-2.2-4.2-5.7-2.6-8.7-2.2c-3.4,0.4-1.9,3.4-1.9,5.2c0,3.3,0.5,6.6,0.7,9.9c0.4,5.7,0.4,5.5-7,6.2c-4.8,0.5-4.5-2.5-4.7-5.6
	c-1-15.3-2-30.5-3.2-45.8c-0.3-3.8,0.7-5.4,4.7-5.4c7-0.1,14-1.2,20.9-0.9c12.4,0.5,18.8,9.3,16.5,21.4c-0.7,3.7-2.8,6.5-5.6,8.5
	c-2.6,1.8-2.3,3.3-0.8,5.6C1340.6,751,1344.3,757.2,1348.4,763.8z M1320.9,719c-8.3,0.3-8.3,0.3-7.7,8.1c0.9,9.7,2.5,10.7,12.7,8
	c3-0.8,5-2.6,5.7-5.6c0.8-3.2,0.2-6.2-2.3-8.7C1326.9,718.4,1323.9,719.1,1320.9,719z"/>
<path class="st9" d="M1269.9,764.3c-14.6,0.2-26-9.7-22.2-26.1c2.2-9.5,3.4-19.3,4.3-29.1c0.6-6.5,4.6-3.8,7.8-3.8
	c3.6,0,4.7,1.7,4.1,5.4c-1.9,11-3.6,22-5,33c-1,7.8,2.8,11.5,10.7,11.4c5.1,0,7.7-3,8.4-7.5c1.8-10.8,3.4-21.7,5.2-32.5
	c0.3-2-0.2-5.3,1.9-5.6c3-0.4,6.2,0.5,9.2,1.4c1.5,0.4,0.9,2.4,0.7,3.6c-1.7,11.7-3.3,23.4-5.5,35
	C1287.6,759.3,1280.4,764.3,1269.9,764.3z"/>
<path class="st9" d="M1219.5,752.3c-7-0.6-15-3.2-20.6-10.7c-1.3-1.7-2.2-3.7-2.9-5.7c-1.1-3-1.9-7.3,0.6-8.9
	c2.8-1.8,6.4,1.4,9.6,2.4c1.4,0.5,0.6,2,0.7,3.1c0.2,6.5,7.9,12,14.1,10.3c4.7-1.3,6.2-7,2.5-10.8c-3-3.1-6.5-5.6-9.9-8.3
	c-2.9-2.3-5.2-5.1-6.9-8.4c-4.1-7.8-0.4-16.9,7.9-19.8c8.3-2.8,20.7,0.6,26.4,7.3c1.7,2.1,3.1,4.4,3.6,7c0.6,2.9,1.8,6.9-0.9,8.3
	c-2.8,1.5-6.1-1.6-9.2-2.5c-1.1-0.3-0.7-1.7-0.6-2.7c0.5-7.7-9.5-10.5-14.2-8.6c-3.2,1.3-4.2,5.2-2.2,8.3c2.6,4,6.7,6.4,10.4,9.2
	c4.6,3.6,8.3,7.8,9.2,13.7C1238.2,745,1231.2,752.3,1219.5,752.3z"/>
<path class="st9" d="M1190,680.9c-1.2,10.2-2.2,18.9-3.2,27.7c-1,8.9-2.2,17.8-3.2,26.7c-0.4,3.2-1.2,4.3-4.5,2.5
	c-7.2-3.9-7.4-3.7-5.7-12c0.6-2.9,0.3-4.6-2.7-5.8c-3.5-1.4-7.1-3-10.2-5.2c-3.6-2.5-5.7-1.5-8.5,1.3c-1.8,1.8-2.7,5.8-6.9,4.1
	c-9.1-3.6-9.3-4.1-2.3-10.6c11.7-10.8,23.5-21.6,35.3-32.3c1.5-1.3,2.8-2.4,4.7-0.8C1185.4,678.3,1189.7,678,1190,680.9z
	 M1162.3,705.2c4.6,2.4,7.7,4,10.7,5.6c1.6,0.8,2.7,1,3-1.4c0.7-5.9,1.7-11.9,2.8-19.1c-3.6,3.4-6.2,6-8.8,8.4
	C1167.6,700.8,1165.2,702.7,1162.3,705.2z"/>
<path class="st9" d="M1397.9,748.8c-0.1,2-1.7,2.1-3.2,2.5c-9.7,2.9-19.4,5.8-29,8.8c-2.6,0.8-3.8,0.1-4.5-2.5
	c-4.6-15.7-9.3-31.5-14.1-47.2c-0.7-2.4,0.1-3.6,2.5-4.2c9.7-2.7,19.5-5.4,29.1-8.5c4.3-1.4,4.2,1.5,5.1,3.8c1.1,2.7,1,4.5-2.6,5.3
	c-6,1.4-11.7,3.5-17.7,5.1c-2.6,0.7-3.5,1.4-2.7,4.3c2.5,9.8,2.4,9.8,11.9,6.9c2.4-0.7,5-1,7.1-2.1c4.6-2.3,6.1-0.3,6.9,4
	c0.4,2.3-0.1,3.3-2.3,3.9c-5,1.4-9.8,3-14.8,4.2c-2.6,0.6-3.3,1.9-2.6,4.3c0.1,0.3,0.2,0.6,0.3,0.9c2.9,10.8,2.9,10.8,13.6,7.4
	c3.2-1,6.4-1.9,9.5-2.8C1395.3,741.4,1398.3,743.8,1397.9,748.8z"/>
<path class="st9" d="M1132,644.7c0.6,0.4,1.3,0.8,2,1.3c8.6,5.8,17,11.7,25.7,17.2c4,2.5,0.9,4.2-0.2,6.3c-1.3,2.5-2.5,3.5-5.2,1.4
	c-5.1-3.8-10.5-7.1-15.6-10.7c-2.1-1.5-3.3-1.2-4.8,0.8c-6.2,8.3-6.3,8.3,2.2,13.9c2.1,1.4,4,3.1,6.2,4.2c4,2,4.3,4.1,1.5,7.6
	c-1.8,2.2-2.7,2.7-5,1c-4.1-3.1-8.6-5.7-12.8-8.7c-2.1-1.5-3.1-1.1-4.6,1c-7,9.9-7.1,9.8,2.8,16.4c3.2,2.1,6.2,4.5,9.6,6.3
	c2.9,1.6,2,3.3,0.5,5.1c-1.4,1.7-2,5-5.6,2.5c-8.6-6-17.3-11.8-26.1-17.6c-1.9-1.3-2.2-2.3-0.8-4.3c9.4-13.8,18.6-27.6,27.9-41.4
	C1130.1,646,1130.4,644.7,1132,644.7z"/>
<path class="st7" d="M1199.7,136.5c-0.1,11.3-6.4,20.4-16.6,24.1c-4.9,1.8-10.2,2.9-15.1,4.8c-2.4,0.9-3.2,0.2-3.9-1.9
	c-5-15.8-10-31.5-15.1-47.2c-0.8-2.6-0.5-3.8,2.3-4.5c5.1-1.3,10.1-3.3,15.2-4.6c11.2-2.8,21,0.9,27.2,10.6
	C1197.5,123.6,1199.3,130.4,1199.7,136.5z M1188.1,138c-0.2-3.9-1.6-8.8-4-13.5c-4.3-8.7-11.7-11.1-20.4-6.7
	c-1.2,0.6-1.7,0.9-1.2,2.5c3.5,10.4,6.8,20.8,10.1,31.2c0.4,1.4,0.7,2.5,2.7,1.9C1182.7,151.4,1188.1,148.6,1188.1,138z"/>
<path class="st7" d="M1367.8,89.3c16.4,0.2,26.3,10,26.5,24.2c0.1,7-1.2,13.9-4.3,20.3c-4.7,9.5-14.3,14.8-24,13.2
	c-11-1.8-18.7-8.9-20-19.8c-1.4-11.8,0.7-22.8,9.3-31.7C1359.4,91.1,1364.6,89.3,1367.8,89.3z M1356.9,123.3
	c0.1,1.2,0.2,2.6,0.4,3.9c1.1,6,4.4,9.5,9.4,10.1c5.9,0.7,9.7-1.4,12.2-7.3c2.9-6.8,4.5-13.9,3.2-21.4c-0.9-5.3-4.1-8.8-8.9-9.4
	c-5.1-0.7-9.1,1.1-11.7,5.7C1358.3,110.6,1357.7,116.9,1356.9,123.3z"/>
<path class="st8" d="M1240,96.6c0.9,2.5-1.1,2.6-2.7,2.9c-6,1.2-12,2.6-18.1,3.6c-3.3,0.5-4,1.8-3.4,5c1.8,8.7,1.6,8.8,10.6,7
	c2.8-0.5,5.6-1,8.3-1.8c3.7-1.1,5.3-0.1,5.9,3.9c0.4,3,0.4,4.6-3.2,5.1c-4.8,0.6-9.4,1.8-14.2,2.8c-0.7,0.1-1.6-0.1-1.9,0.3
	c-3.4,4.3,0.7,8.3,0.6,12.5c-0.1,2.8,2.1,2.4,4,2.1c6.2-1.2,12.4-2.3,18.5-3.8c5.3-1.3,3.8,2.8,4.8,5.2c1.3,3.2-0.6,3.5-3,4
	c-9.8,1.9-19.6,3.8-29.3,5.9c-3,0.7-4.4,0.3-5-3.1c-2.9-15.8-6-31.6-9.4-47.3c-0.8-3.5,0.2-4.2,3.4-4.7c9-1.6,17.9-3.5,26.8-5.3
	C1239.1,89.4,1239.8,89.8,1240,96.6z"/>
<path class="st7" d="M1270.8,86c6.8-0.7,14.4-0.3,19.9,6.3c4.6,5.5,5.7,12.1,3,18.7c-3,7.5-9.6,10.1-17,11.1
	c-3.8,0.5-9.5-0.4-10.8,1.7c-1.7,2.6,0,7.6,0.3,11.5c0,0.3,0.2,0.7,0.1,1c0,2.1,1.5,5.3-0.2,6.1c-2.9,1.2-6.4,1.1-9.7,1.2
	c-1.5,0.1-1.4-1.6-1.5-2.7c-1.5-16.9-2.9-33.7-4.4-50.6c-0.2-2.4,0.9-2.8,2.8-2.9C1258.8,86.9,1264.3,86.5,1270.8,86z M1269.2,113.4
	c2.8-0.4,5.6-0.6,8.3-1.2c3.5-0.7,5.4-2.9,5.6-6.6c0.2-3.6-0.3-7.1-3.8-9.1c-5.1-3-10.6-1.5-15.4,0c-2.5,0.7-0.2,5.3-0.2,8.1
	c0,1.3,0.4,2.7,0.2,4C1263.5,112.7,1265.3,114.1,1269.2,113.4z"/>
<path class="st7" d="M1407.3,97.4c3.5,1.1,6.6,2.2,9.7,3.1c3,0.9,2.5,3.6,2.7,5.8c0.7,7.2,1.2,14.4,1.8,22.5
	c5.4-5.4,10.4-9.7,14.8-14.7c3.3-3.8,6.5-5.1,11-2.6c1.5,0.9,3.3,1.3,5.5,2.2c-7.3,6.9-14,14.2-21.7,20c-7.2,5.5-9.9,12.9-12.6,20.7
	c-0.6,1.8-0.6,5.3-2.9,5.1c-3.2-0.2-6.2-2-9.3-3.2c-0.3-0.1-0.4-1.2-0.4-1.8c0-0.6,0.2-1.3,0.6-1.9c6.9-11.9,5.2-24.5,3-37.2
	C1408.6,109.8,1408.1,103.8,1407.3,97.4z"/>
<path class="st8" d="M1323.4,141.2c-5.3-0.2-10.6-0.6-15.9-0.7c-2.6,0-3.4-1-3.3-3.6c0.8-16.4,1.5-32.9,2-49.3
	c0.1-2.9,1.1-3.9,3.8-3.5c1.3,0.2,2.7,0.3,4,0.1c3.5-0.4,4.2,1.3,4,4.4c-0.6,12.8-0.9,25.6-1.6,38.4c-0.2,3.1,0.3,4.6,3.8,4.6
	c5.5,0,11,0.7,16.4,0.6c3.3,0,4.5,0.9,4.1,4.3c-0.3,3,0.4,6.1-4.5,5.4c-4.3-0.6-8.6-0.6-12.9-0.8
	C1323.4,141.2,1323.4,141.2,1323.4,141.2z"/>
<path class="st7" d="M502.3,751.2c-7.6,0.2-13.5-2.2-17.4-8.8c-1.4-2.4-1.7-4.2,1.7-4.8c1.8-0.3,3.6-0.8,5.3-1.5
	c1.9-0.7,2.8-0.1,3.8,1.7c3.5,5.7,14.3,5.6,18,0.1c2.5-3.8,0.3-8.4-4.7-9.8c-5-1.4-10.3-0.5-15.4-1.6c-9.5-1.9-14.6-6.1-15.5-13.1
	c-1-7.2,3.5-13.6,12.1-17.5c8.9-4.1,18.7-3.1,24.3,2.3c2.1,2,5,5.4,3.8,6.9c-2,2.5-6.1,2.7-9.6,3.2c-0.9,0.1-1.2-0.9-1.8-1.5
	c-3.9-4.6-10.2-5.1-14.9-1.3c-2,1.6-2.8,3.6-2.3,6.2c0.5,2.4,2,3.7,4.2,4.4c5.6,1.8,11.6,0.7,17.3,1.9c8.2,1.7,13.8,6.2,14.7,12.8
	c1.1,7.6-2.2,13.2-10,17.2C511.6,750.2,507,751.4,502.3,751.2z"/>
<path class="st9" d="M450.8,750.1c1.4,2.1,3.6,0.5,5.3,1c1.7-0.1,3.4,0.4,4.9-0.8c1.4-0.1,2.7-0.1,4.1-0.2c1.7-0.1,3.4,0.4,4.9-0.8
	c0.5-0.1,1.1-0.4,1.5-0.2c1.8,0.7,4.4-1.8,5.3,0.3c0.9,2.1,0.3,4.9,0.2,7.4c0,1.1-0.8,1.2-1.7,1.3c-10.8,1-21.5,2-32.3,3.1
	c-2.3,0.2-2.7-0.7-3-2.7c-1.2-11.8-2.5-23.5-4-35.2c-0.6-5-0.6-10.1-2-15.1c-0.6-2,0.3-2.9,2.6-3c11-0.9,21.9-1.9,32.8-3.3
	c2.3-0.3,2.4,0.3,2.6,2c0.7,6.7,0.2,7.3-8.9,8.2c-4.4,0.4-8.8,0.7-13.3,1.1c-0.8,0.1-2.2,0-2.3,0.4c-1.4,3.8,0.8,7.4,0.5,11.2
	c-0.1,2.1,1.4,2.4,3,2.4c1.7-0.1,3.4,0.4,4.9-0.8c1.4-0.1,2.7-0.1,4.1-0.2c1.7-0.1,3.4,0.4,4.9-0.8c1.7-0.3,3.3-0.6,5,0
	c0,1,0,2,0.8,2.8c0.2,1.7,0.8,3.4-0.1,5c-1,0-1.9,0-2.7,0.8c-6.1,0.7-12.2,1.5-18.3,2.2c-1.1,1.7-1.1,3.3,0,5
	c0.1,1.4,0.1,2.7,0.2,4.1C450.1,746.9,449.6,748.6,450.8,750.1z"/>
<path class="st9" d="M413.7,714.6c-0.9,13.9-2,27.6-2.6,41.3c-0.2,3.8-0.8,6-5.2,5.1c-3.4-0.7-7.6,0.7-6.8-5.9
	c1.5-12.3,1.9-24.8,2.9-37.2c0.3-3.9-1.1-5.1-4.7-4.8c-2.1,0.1-4.3,0-6.5-0.2c-6.1-0.4-6-0.4-5.2-6.7c0.3-2.4,1-3.4,3.6-3.2
	c13.2,1.1,26.4,2.1,39.7,2.9c3.4,0.2,3,2.4,2.2,4.1c-0.8,1.7,2.3,5.6-2.7,5.2C423.7,714.9,419.1,714.8,413.7,714.6z"/>
<path class="st7" d="M564.6,727.6c0.2,1.3-0.9,1.4-1.8,1.8c-1.5,0.7-3,1.4-4.5,2.2c-2.8,1.6-4.3,1.2-5.7-2.1
	c-5.2-11.7-10.8-23.1-16.1-34.7c-1.4-3-2.6-4.8-6-2.4c-1.9,1.3-4.2,1.9-6.3,2.9c-4.8,2.3-7.9,0.5-8.5-4.7c-0.2-1.5,0.8-1.7,1.6-2.1
	c12.4-5.9,24.9-11.7,37.4-17.4c3.8-1.7,3.2,2.2,4.2,3.7c1,1.4,2.8,3.4-0.4,4.7c-3.4,1.4-6.5,3.2-10,4.4c-3,1.1-3.2,2.5-1.9,5.1
	c5.5,11.3,10.7,22.8,16,34.2C563.4,724.7,564,726.1,564.6,727.6z"/>
<path class="st8" d="M465,725.4c-1.5,1.2-3.3,0.7-4.9,0.8C461.6,725.3,463.2,725.2,465,725.4z"/>
<path class="st8" d="M456,726.4c-1.5,1.2-3.3,0.7-4.9,0.8C452.6,726.3,454.2,726.2,456,726.4z"/>
<path class="st8" d="M449.8,741.1c-1.1-1.7-1.1-3.3,0-5C449.7,737.8,449.7,739.5,449.8,741.1z"/>
<path class="st8" d="M450.8,750.1c-1.2-1.5-0.7-3.3-0.8-4.9C450.8,746.7,450.9,748.4,450.8,750.1z"/>
<path class="st8" d="M470,749.4c-1.5,1.2-3.3,0.7-4.9,0.8C466.6,749.3,468.2,749.2,470,749.4z"/>
<path class="st8" d="M461,750.4c-1.5,1.2-3.3,0.7-4.9,0.8C457.6,750.3,459.2,750.2,461,750.4z"/>
<path class="st8" d="M470.8,728.1c-0.8-0.8-0.8-1.8-0.8-2.8C471.3,726,470.8,727.1,470.8,728.1z"/>
<path class="st8" d="M468,733.9c0.7-0.8,1.7-0.8,2.7-0.8C470,734.2,469,734.1,468,733.9z"/>
<path class="st8" d="M118.3,498.9c-1.4,7.9-6.3,11.4-13.6,12c-6.6,0.6-11.8-2.7-15.1-10c-3.7-8-4.6-16.9-7.2-25.3
	c-0.6-2,0.5-2.2,2-2.6c16.4-4.1,32.9-8.3,49.2-12.5c2.5-0.6,3.2,0.2,3.7,2.4c1.6,7,3.5,13.9,4.9,20.9c1.4,6.8,0.5,13.2-6,17.1
	C130.1,504.8,123.8,504.5,118.3,498.9z M111.4,492.3c0.1-5.2-2.8-13.4-4.4-12.8c-4.3,1.6-11,0.1-12.5,4.8c-2,6.3,4.3,14.8,9,14.9
	C108.1,499.3,111.3,496.5,111.4,492.3z M133,484.6c-2.2-2.7,0.9-8.9-4.7-10.3c-4.1-1-11.3,2.9-11.2,4.7c0.3,7.2,4.3,13.2,8.7,13.3
	C130.2,492.3,133,489.7,133,484.6z"/>
<path class="st8" d="M178.1,667c-7-0.1-13.4-3.8-18.5-10.1c-3.1-3.9-6-7.9-9.2-11.8c-1.3-1.6-1.4-2.5,0.4-3.9
	c13.4-10.1,26.6-20.4,40-30.5c0.9-0.7,2-2.6,3.2-0.9c5.3,7.5,12.6,13.7,14.9,23.3c1.1,4.6,0.5,8.8-1,13.2
	C204.2,657,190.5,667,178.1,667z M177,656.3c5-0.1,11.4-3.6,17.1-9.3c7.2-7.3,7.4-13.8,0.8-21.4c-1.4-1.6-2.5-1.7-4.1-0.5
	c-8.5,6.6-17.1,13.2-25.6,19.8c-1,0.8-1.7,1.3-1.2,2.7C165.8,652.2,172.1,656.4,177,656.3z"/>
<path class="st8" d="M100,537.1c0-8.5,4-14.7,11.9-17.7c11-4.1,22.3-7.8,33.4-11.8c2.5-0.9,3.7-0.2,4.4,2.2c0.4,1.3,0.7,2.6,1.3,3.7
	c1.6,3.2,0.6,4.5-2.7,5.6c-10.4,3.4-20.7,7.1-31,10.8c-6.8,2.4-9.1,7-6.9,13.1c2,5.7,6.8,7.8,13.4,5.5c10.5-3.5,21-7.1,31.4-11
	c3.1-1.2,4.2-0.4,4.9,2.3c0,0.2,0.1,0.3,0.2,0.5c2.7,7,2.7,7-4.3,9.4c-9.1,3.2-18.2,6.4-27.3,9.4c-12.5,4.2-21.4,0.2-26.5-11.9
	C100.7,543.9,99.6,540.4,100,537.1z"/>
<path class="st8" d="M173.7,574.4c1.4-0.5,1.7,0.7,2.1,1.5c0.8,1.4,1.5,3,2.4,4.3c2.1,2.8,1.4,4.3-1.7,5.9
	c-11.5,6-22.6,12.5-34.1,18.4c-3.8,1.9-3.2,3.4-1.5,6.3c2.9,4.8,5.3,10,8.2,14.8c2.1,3.5-0.7,3.8-2.6,4.8c-1.8,1-3.6,3.4-5.5-0.3
	c-4.6-9-9.5-17.9-14.4-26.7c-1-1.8-1.3-2.7,0.8-3.9c15-8.1,30-16.3,45-24.4C172.8,574.9,173.2,574.6,173.7,574.4z"/>
<path class="st8" d="M120.4,587.8c-1.1,0.3-1.3-0.6-1.7-1.4c-0.8-1.7-1.4-3.4-2.3-5c-1.7-3-0.7-4.4,2.4-5.7
	c14.6-6.2,29.2-12.6,43.7-19.1c2.9-1.3,4.8-1.5,5.6,2.2c0.4,1.6,1.2,3.1,2,4.5c0.8,1.4,0.7,2.3-1,3.1c-15.9,6.9-31.9,13.9-47.8,20.9
	C121,587.5,120.7,587.7,120.4,587.8z"/>
<path class="st7" d="M733.5,312.7c7-6.8,14.2-13.5,20.8-20.6c3.4-3.6,5-2.6,8,0.3c3.6,3.5,3.1,5.4-0.4,8.6
	c-11.2,10.6-22.1,21.7-33,32.7c-2.1,2.2-3.2,2-5.5,0.1c-4.3-3.6-5.5-7.1-3.8-12.8c3.3-10.9,5.6-22.2,8.4-33.3
	c-0.5-0.4-0.9-0.8-1.4-1.2c-6.9,7.3-13.9,14.5-20.7,22c-2.6,2.9-4.3,3.5-7.2,0.2c-4.5-5.1-4.8-4.9-0.1-9.5
	c10.8-10.7,21.6-21.2,32.3-32c2.3-2.4,3.6-2.7,6.2-0.2c3.6,3.6,5.1,6.8,3.5,12.1c-3.2,10.8-5.6,21.8-8.3,32.8
	C732.8,312.1,733.1,312.4,733.5,312.7z"/>
<path class="st7" d="M652.8,262.7c18.3-8.2,35.5-15.9,52.7-23.8c3-1.4,4.1,0.5,5.3,2.1c1.5,2,5.5,2.7,3.7,6.6
	c-8,17.3-15.9,34.6-24.6,53.3c-2.6-3.1-4.7-5.7-6.9-8.1c-2.1-2.2-0.1-3.7,0.7-5.3c3.6-7.5,3.6-7.5-2.3-13.4
	c-0.5-0.5-0.9-0.9-1.4-1.4c-6.7-6.8-6.8-6.8-15.3-2.6c-1.9,0.9-3.2,1.2-4.7-0.6C657.9,267.3,655.6,265.4,652.8,262.7z M691.7,271.4
	c3.2-6.4,6.2-12.5,9.8-19.6c-7.2,3.6-13.5,6.1-19.3,9.8C685.4,265,688.4,268,691.7,271.4z"/>
<path class="st7" d="M637.1,207.6c-9.2-0.3-14-4.3-18.6-8.8c-6.1-6.1-6.2-6.1-12.4,0.1c-0.8,0.8-1.6,1.7-2.5,2.5
	c-5.5,5.3-5.4,5.1-10.9-0.1c-2.3-2.2-2.4-3.4,0-5.7c11.7-11.4,23.2-22.9,34.8-34.4c1-1,2-3.2,3.9-1c5.9,6.6,13.1,11.9,18,19.3
	c4.1,6.1,4.6,12.7,0.5,19.2C646.5,204.4,641.6,207.7,637.1,207.6z M633.1,197.1c3.7-0.6,6.2-2.7,7.8-5.7c1.7-3,1.5-6.1-0.7-8.8
	c-2.1-2.5-4.5-4.8-6.7-7.3c-1.3-1.5-2.3-1.3-3.6,0.1c-3,3.1-6.1,6.1-9.2,9c-1.4,1.3-1.4,2.3,0,3.6c2.4,2.2,4.7,4.7,7.1,6.9
	C629.3,196.3,631.2,196.9,633.1,197.1z"/>
<path class="st8" d="M651.8,260.8c-1.1-0.8-1.8-1.3-2.3-1.8c-7.3-7.3-14.5-14.7-21.8-21.9c-1.5-1.5-1.5-2.5,0-4
	c12-11.8,23.9-23.7,35.7-35.5c1.8-1.8,3.2-1.9,4.8,0.2c0.7,0.9,1.5,1.8,2.5,2.5c3,2.4,2.7,4.2-0.1,6.9c-9.3,8.8-18.2,18-27.4,26.9
	c-2.2,2.1-2.3,3.3,0,5.4c4.1,3.8,8,8,11.8,12.1c0.9,1,3.1,1.7,1.9,3.5C655.5,257.1,653.6,258.9,651.8,260.8z"/>
<path class="st10" d="M352.9,427.7c-0.2,7.4-0.1,16.5,2.2,25.5c3.2,12.7,10.5,19.7,23,21.6c6.5,1,13,0,19-2.7
	c8.1-3.7,11.4-10.9,12.5-19.1c0.5-3.5,1.8-3.9,4.7-3.8c7.5,0.1,15,0.2,22.5,0c2.8-0.1,3.3,0.9,3,3.5c-3.6,27.3-23.5,45.3-51.2,46.6
	c-19.5,1-37.1-2.9-50.4-18.5c-9.1-10.6-13.6-23.2-15-36.8c-1.7-16.6-1.9-33.1,2.6-49.5c8.5-31,33.3-45.8,63.6-43.1
	c13.8,1.2,26.3,5.7,36.1,15.9c8.5,8.8,12.6,19.7,14.4,31.6c0.3,2.2-0.1,3.3-2.8,3.3c-8-0.1-16-0.1-24,0c-2.4,0-2.9-1-3.3-3.2
	c-2.8-16.6-9.8-22.7-26.3-23.6c-13.6-0.7-23.7,6.8-28,20.8c-0.6,2.1-1.1,4.2-1.6,6.3C352.5,410.2,352.9,418.1,352.9,427.7z"/>
<path class="st10" d="M461,425.2c0-22.3,0.1-44.7-0.1-67c0-4.3,1.2-5.3,5.3-5.1c7.1,0.3,14.3,0.2,21.5,0c2.6-0.1,3.4,0.8,3.4,3.4
	c-0.1,45.8-0.1,91.7,0,137.5c0,2.7-0.9,3.4-3.5,3.3c-7.5-0.1-15-0.2-22.5,0c-3.3,0.1-4.2-1-4.2-4.2C461,470.5,461,447.8,461,425.2z"
	/>
<path class="st0" d="M293.4,116.8c5.2,0.1,8.7,3.6,11.4,7.9c2.1,3.4,3.7,7.1,4.8,10.9c2.6,9-1.2,15.8-10,18.6
	c-1.7,0.5-2.3,0.2-3-1.3c-4.6-10.1-9.3-20.1-14.1-30.2c-0.8-1.6-0.4-2.3,1.1-3C286.5,118.3,289.5,116.9,293.4,116.8z"/>
<path class="st0" d="M234,154.2c0.1-8.3,9.2-13.7,16.3-9.1c7.9,5.1,13.2,12.6,14.9,22c1.5,8.4-6.8,14.7-14.6,11.7
	C243.2,175.9,233.9,162.2,234,154.2z"/>
<path class="st10" d="M1310.6,424.8c0-22.3,0.1-44.6-0.1-67c0-3.7,0.9-4.8,4.7-4.7c14,0.2,28,0,42,0.1c32.8,0.3,59.4,24.7,62.8,57.4
	c1.9,18.4,1.5,36.7-7.4,53.5c-11.1,20.8-29,31.7-52.2,33c-15.1,0.8-30.3,0.1-45.5,0.3c-3.7,0.1-4.4-1.3-4.4-4.6
	C1310.7,470.1,1310.6,447.4,1310.6,424.8z M1340.1,425.1c0,14.6,0.1,29.3-0.1,43.9c0,3.2,0.8,4.5,4.2,4.2c4-0.3,8,0,12-0.1
	c15-0.2,26.2-7.9,30.7-22.3c5.4-17.1,5.3-34.4,0-51.5c-3.8-12.4-12.5-19.5-25.5-21.5c-5.7-0.9-11.3-0.2-16.9-0.7
	c-3.5-0.3-4.6,0.9-4.5,4.5C1340.2,396.2,1340.1,410.6,1340.1,425.1z"/>
<path class="st10" d="M1173.9,424.8c-0.7-14.8,1.2-29.1,7.9-42.6c9.5-19.1,25.4-29.2,46.2-30.8c18.3-1.5,35.5,2.3,49,16.2
	c8.4,8.7,12.4,19.4,14.1,31.2c0.4,2.7-0.5,3.5-3.1,3.4c-7.7-0.1-15.3-0.1-23,0c-2.5,0-3.6-0.8-3.9-3.3
	c-2.4-19.7-13.8-22.8-26.8-23.3c-14.5-0.6-24.7,7.5-28,23.1c-3.8,18.2-4,36.8,0.4,54.9c4.6,19.3,25.3,27.7,42.7,18
	c7.4-4.1,10.5-10.9,11.5-18.8c0.4-3,1.2-3.9,4.2-3.8c7.3,0.2,14.7,0.3,22,0c3.9-0.2,4.3,1.4,4,4.7c-2.6,22.5-19.7,40.6-42.3,44.3
	c-13.3,2.2-26.5,2.3-39.2-3c-16.4-6.7-26-19.4-31.5-35.8C1174.1,448.1,1173.4,436.5,1173.9,424.8z"/>
<path class="st1" d="M744.8,524.9c2.2,0.1,4.8,2.1,6.4,5.1c1.6,2.9,1.2,5.6-0.8,8.4c-6.7,9.1-7.1,9.2-15,1.3
	c-5.3-5.3-5.3-5.3,0.2-10.7C737.8,526.9,740,524.8,744.8,524.9z"/>
<path class="st1" d="M869.3,401.7c7.4,3.6,13.5,6.6,20,9.8c-3.5,3.3-6.7,6.2-10.1,9.5C876.2,415,873.1,409,869.3,401.7z"/>
<path class="st2" d="M1627,424.2c10.2,0.3,10.2,0.3,9.1,10.4c-0.6,5.5-3.9,8.7-8.6,8.5c-5.2-0.3-8.5-4.3-8.1-10
	c0.1-0.8,0.3-1.6,0.4-2.5C1620.4,424,1620.4,424,1627,424.2z"/>
<path class="st2" d="M1620.4,489.6c-5.9,0.4-11.9,0.8-17.8,1.2c-1.9,0.1-2.8-0.4-2.1-2.6c1.1-3.3,1.9-6.7,3-10.8
	c5.9,3.8,11.6,7.5,17.4,11.1C1620.7,488.9,1620.5,489.2,1620.4,489.6z"/>
<path class="st2" d="M1564.9,285.5c-0.3-3.2,1.3-6,3.6-8.1c5.6-5.2,12.1-9.2,19.9-10.5c5.1-0.9,9.1,0.9,11.7,5.4
	c2.7,4.6,2.1,9.1-1.4,12.8c-5.9,6.4-13.4,10.4-22,11.8C1570.3,297.9,1564.8,292.5,1564.9,285.5z"/>
<path class="st2" d="M1624.1,331.5c0,5-2.6,7.9-7.4,8.9c-4.4,0.9-7.2-0.9-9-5c-4.7-11.2-4.8-11.2,6.7-14.9c6.2-2,6.3-2,8.2,4.2
	C1623.3,327.1,1624.4,329.4,1624.1,331.5z"/>
<path class="st3" d="M1320.9,719c2.9,0.1,6-0.6,8.5,1.9c2.5,2.5,3.1,5.5,2.3,8.7c-0.7,3-2.7,4.8-5.7,5.6c-10.2,2.7-11.9,1.7-12.7-8
	C1312.6,719.3,1312.6,719.3,1320.9,719z"/>
<path class="st3" d="M1162.3,705.2c2.9-2.5,5.4-4.4,7.7-6.6c2.7-2.4,5.2-4.9,8.8-8.4c-1.1,7.2-2,13.1-2.8,19.1
	c-0.3,2.4-1.4,2.2-3,1.4C1169.9,709.2,1166.8,707.6,1162.3,705.2z"/>
<path class="st4" d="M1188.1,138c0,10.6-5.4,13.4-12.7,15.4c-1.9,0.5-2.2-0.6-2.7-1.9c-3.3-10.4-6.7-20.8-10.1-31.2
	c-0.5-1.6,0-1.9,1.2-2.5c8.6-4.3,16-1.9,20.4,6.7C1186.5,129.2,1187.9,134.1,1188.1,138z"/>
<path class="st4" d="M1356.9,123.3c0.8-6.4,1.4-12.7,4.6-18.3c2.6-4.6,6.6-6.4,11.7-5.7c4.8,0.6,8,4,8.9,9.4
	c1.3,7.5-0.3,14.6-3.2,21.4c-2.5,5.8-6.3,7.9-12.2,7.3c-5-0.6-8.3-4.1-9.4-10.1C1357.1,125.8,1357,124.5,1356.9,123.3z"/>
<path class="st4" d="M1269.2,113.4c-3.9,0.7-5.7-0.7-5.2-4.8c0.1-1.3-0.2-2.6-0.2-4c0-2.8-2.3-7.4,0.2-8.1c4.8-1.4,10.4-3,15.4,0
	c3.4,2.1,3.9,5.5,3.8,9.1c-0.2,3.7-2.1,5.9-5.6,6.6C1274.8,112.8,1271.9,113,1269.2,113.4z"/>
<path class="st2" d="M111.4,492.3c0,4.2-3.3,7-7.9,6.9c-4.7-0.1-10.9-8.7-9-14.9c1.4-4.6,8.2-3.1,12.5-4.8
	C108.6,478.9,111.4,487.1,111.4,492.3z"/>
<path class="st2" d="M133,484.6c0,5.1-2.8,7.8-7.2,7.7c-4.4-0.1-8.3-6.1-8.7-13.3c-0.1-1.9,7.1-5.7,11.2-4.7
	C133.9,475.7,130.8,481.9,133,484.6z"/>
<path class="st2" d="M177,656.3c-5,0.1-11.2-4.2-13-8.6c-0.6-1.5,0.1-2,1.2-2.7c8.6-6.6,17.1-13.2,25.6-19.8
	c1.6-1.2,2.7-1.1,4.1,0.5c6.6,7.6,6.5,14.1-0.8,21.4C188.5,652.8,182,656.3,177,656.3z"/>
<path class="st6" d="M691.7,271.4c-3.3-3.4-6.3-6.4-9.5-9.8c5.8-3.7,12.1-6.2,19.3-9.8C697.9,259,694.9,265,691.7,271.4z"/>
<path class="st6" d="M633.1,197.1c-1.9-0.2-3.8-0.8-5.3-2.2c-2.4-2.3-4.7-4.7-7.1-6.9c-1.4-1.3-1.4-2.3,0-3.6c3.1-2.9,6.2-5.9,9.2-9
	c1.3-1.3,2.3-1.6,3.6-0.1c2.2,2.5,4.6,4.8,6.7,7.3c2.2,2.7,2.4,5.8,0.7,8.8C639.2,194.4,636.8,196.5,633.1,197.1z"/>
</svg>
