<?xml version="1.0" encoding="utf-8"?>
<!-- Generator: Adobe Illustrator 22.0.1, SVG Export Plug-In . SVG Version: 6.00 Build 0)  -->
<svg version="1.1" id="Layer_1" xmlns="http://www.w3.org/2000/svg" xmlns:xlink="http://www.w3.org/1999/xlink" x="0px" y="0px"
	 viewBox="0 0 475.6 411" style="enable-background:new 0 0 475.6 411;" xml:space="preserve">
<style type="text/css">
	.st0{opacity:0.7;}
	.st1{filter:url(#filter-2);}
	.st2{fill:#FFFFFF;}
	.st3{filter:url(#filter-4);}
	.st4{fill:#0E1B29;}
	.st5{font-family:'arial'; font-weight:600;}
	.st6{font-size:15.39px;}
	.st7{font-family:'arial';}
	.st8{font-size:11.97px;}
	.st9{fill:#F01F7A;}
	.st10{filter:url(#filter-6);}
	.st11{fill:#00B727;}
	.st12{fill:#252F3E;}
	.st13{fill:#FF9900;}
	.st14{fill:#EAEBEF;}
	.st15{fill:#68737E;}
	.st16{font-size:10.26px;}
	.st17{filter:url(#filter-8);}
	.st18{fill:#FBF9F9;}
	.st19{font-family:'arial';}
	.st20{font-size:12.825px;}
	.st21{font-size:17.1px;}
	.st22{filter:url(#filter-10);}
	.st23{filter:url(#filter-12);}
	.st24{filter:url(#filter-14);}
	.st25{fill:#343434;}
	.st26{filter:url(#filter-16);}
	.st27{filter:url(#filter-18);}
</style>
<filter  filterUnits="objectBoundingBox" height="114.1%" id="filter-8" width="111.1%" x="-5.5%" y="-5.4%">
	<feOffset  dx="0" dy="5" in="SourceAlpha" result="shadowOffsetOuter1"></feOffset>
	<feGaussianBlur  in="shadowOffsetOuter1" result="shadowBlurOuter1" stdDeviation="6.5"></feGaussianBlur>
	
		<feColorMatrix  in="shadowBlurOuter1" type="matrix" values="0 0 0 0 0.0549019608   0 0 0 0 0.105882353   0 0 0 0 0.160784314  0 0 0 0.1 0">
		</feColorMatrix>
</filter>
<filter  filterUnits="objectBoundingBox" height="139.0%" id="filter-6" width="106.4%" x="-3.2%" y="-17.9%">
	<feOffset  dx="0" dy="1" in="SourceAlpha" result="shadowOffsetOuter1"></feOffset>
	<feGaussianBlur  in="shadowOffsetOuter1" result="shadowBlurOuter1" stdDeviation="4"></feGaussianBlur>
	
		<feColorMatrix  in="shadowBlurOuter1" type="matrix" values="0 0 0 0 0.0549019608   0 0 0 0 0.105882353   0 0 0 0 0.160784314  0 0 0 0.1 0">
		</feColorMatrix>
</filter>
<filter  filterUnits="objectBoundingBox" height="139.0%" id="filter-4" width="106.4%" x="-3.2%" y="-17.9%">
	<feOffset  dx="0" dy="1" in="SourceAlpha" result="shadowOffsetOuter1"></feOffset>
	<feGaussianBlur  in="shadowOffsetOuter1" result="shadowBlurOuter1" stdDeviation="4"></feGaussianBlur>
	
		<feColorMatrix  in="shadowBlurOuter1" type="matrix" values="0 0 0 0 0.0549019608   0 0 0 0 0.105882353   0 0 0 0 0.160784314  0 0 0 0.1 0">
		</feColorMatrix>
</filter>
<filter  filterUnits="objectBoundingBox" height="116.7%" id="filter-2" width="111.1%" x="-5.5%" y="-6.4%">
	<feOffset  dx="0" dy="5" in="SourceAlpha" result="shadowOffsetOuter1"></feOffset>
	<feGaussianBlur  in="shadowOffsetOuter1" result="shadowBlurOuter1" stdDeviation="6.5"></feGaussianBlur>
	
		<feColorMatrix  in="shadowBlurOuter1" type="matrix" values="0 0 0 0 0.0549019608   0 0 0 0 0.105882353   0 0 0 0 0.160784314  0 0 0 0.1 0">
		</feColorMatrix>
</filter>
<filter  filterUnits="objectBoundingBox" height="158.0%" id="filter-18" width="158.0%" x="-29.0%" y="-23.9%">
	<feOffset  dx="0" dy="2" in="SourceAlpha" result="shadowOffsetOuter1"></feOffset>
	<feGaussianBlur  in="shadowOffsetOuter1" result="shadowBlurOuter1" stdDeviation="3.5"></feGaussianBlur>
	
		<feColorMatrix  in="shadowBlurOuter1" type="matrix" values="0 0 0 0 0.0549019608   0 0 0 0 0.105882353   0 0 0 0 0.160784314  0 0 0 0.1 0">
		</feColorMatrix>
</filter>
<filter  filterUnits="objectBoundingBox" height="407.0%" id="filter-16" width="407.0%" x="-153.5%" y="-197.4%">
	<feOffset  dx="0" dy="-6" in="SourceAlpha" result="shadowOffsetOuter1"></feOffset>
	<feGaussianBlur  in="shadowOffsetOuter1" result="shadowBlurOuter1" stdDeviation="6"></feGaussianBlur>
	
		<feColorMatrix  in="shadowBlurOuter1" type="matrix" values="0 0 0 0 0.0549019608   0 0 0 0 0.105882353   0 0 0 0 0.160784314  0 0 0 0.1 0">
		</feColorMatrix>
</filter>
<filter  filterUnits="objectBoundingBox" height="139.0%" id="filter-14" width="106.4%" x="-3.2%" y="-17.9%">
	<feOffset  dx="0" dy="1" in="SourceAlpha" result="shadowOffsetOuter1"></feOffset>
	<feGaussianBlur  in="shadowOffsetOuter1" result="shadowBlurOuter1" stdDeviation="4"></feGaussianBlur>
	
		<feColorMatrix  in="shadowBlurOuter1" type="matrix" values="0 0 0 0 0.0549019608   0 0 0 0 0.105882353   0 0 0 0 0.160784314  0 0 0 0.1 0">
		</feColorMatrix>
</filter>
<filter  filterUnits="objectBoundingBox" height="139.0%" id="filter-12" width="106.4%" x="-3.2%" y="-17.9%">
	<feOffset  dx="0" dy="1" in="SourceAlpha" result="shadowOffsetOuter1"></feOffset>
	<feGaussianBlur  in="shadowOffsetOuter1" result="shadowBlurOuter1" stdDeviation="4"></feGaussianBlur>
	
		<feColorMatrix  in="shadowBlurOuter1" type="matrix" values="0 0 0 0 0.0549019608   0 0 0 0 0.105882353   0 0 0 0 0.160784314  0 0 0 0.1 0">
		</feColorMatrix>
</filter>
<filter  filterUnits="objectBoundingBox" height="139.0%" id="filter-10" width="106.4%" x="-3.2%" y="-17.9%">
	<feOffset  dx="0" dy="1" in="SourceAlpha" result="shadowOffsetOuter1"></feOffset>
	<feGaussianBlur  in="shadowOffsetOuter1" result="shadowBlurOuter1" stdDeviation="4"></feGaussianBlur>
	
		<feColorMatrix  in="shadowBlurOuter1" type="matrix" values="0 0 0 0 0.0549019608   0 0 0 0 0.105882353   0 0 0 0 0.160784314  0 0 0 0.1 0">
		</feColorMatrix>
</filter>
<g id="Group-7" transform="translate(78.000000, 0.000000)" class="st0">
	<g id="Rectangle">
		<g class="st1">
			<path id="path-1_2_" d="M10.3,0h377.1c5.7,0,10.3,4.6,10.3,10.3v243.7c0,5.7-4.6,10.3-10.3,10.3H10.3c-5.7,0-10.3-4.6-10.3-10.3
				V10.3C0,4.6,4.6,0,10.3,0z"/>
		</g>
		<g>
			<path id="path-1_1_" class="st2" d="M10.3,0h377.1c5.7,0,10.3,4.6,10.3,10.3v243.7c0,5.7-4.6,10.3-10.3,10.3H10.3
				c-5.7,0-10.3-4.6-10.3-10.3V10.3C0,4.6,4.6,0,10.3,0z"/>
		</g>
	</g>
	<g id="Group-5" transform="translate(3.420000, 7.695000)">
		<g id="Rectangle_1_">
			<g class="st3">
				<path id="path-3_2_" d="M10.3,0h370.2c5.7,0,10.3,4.6,10.3,10.3v43.6c0,5.7-4.6,10.3-10.3,10.3H10.3C4.6,64.1,0,59.5,0,53.9
					V10.3C0,4.6,4.6,0,10.3,0z"/>
			</g>
			<g>
				<path id="path-3_1_" class="st2" d="M10.3,0h370.2c5.7,0,10.3,4.6,10.3,10.3v43.6c0,5.7-4.6,10.3-10.3,10.3H10.3
					C4.6,64.1,0,59.5,0,53.9V10.3C0,4.6,4.6,0,10.3,0z"/>
			</g>
		</g>
		<text transform="matrix(1 0 0 1 85.5 29.8399)" class="st4 st5 st6">Codecov</text>
		<text transform="matrix(1 0 0 1 85.5 46.3599)" class="st4 st7 st8">Coverage for your project name increased</text>
		<g id="Group-3" transform="translate(21.375001, 13.680000)">
			<circle id="Oval" class="st9" cx="18" cy="18" r="18"/>
			<path id="Path" class="st2" d="M18,6.6C11.4,6.6,6,12,6,18.7v0l2,1.2l0,0c1.3-0.9,2.8-1.2,4.3-0.9c1.1,0.2,2.1,0.7,2.9,1.4
				l0.3,0.3l0.2-0.4c0.2-0.4,0.4-0.8,0.7-1.2c0.1-0.1,0.2-0.3,0.3-0.5l0.2-0.3l-0.3-0.2c-1.1-0.9-2.4-1.6-3.9-1.8
				c-1.3-0.2-3.1,0.3-4.4,0.7c1-4.3,5.1-7.8,9.5-7.8c2.5,0,4.8,1,6.6,2.7c1.2,1.3,2.1,2.8,2.5,4.6c-0.8-0.3-1.6-0.4-2.5-0.4h-0.2
				c-0.3,0-0.7,0-1,0.1l0,0c-0.1,0-0.3,0-0.4,0.1c-0.1,0-0.1,0-0.2,0c-0.1,0-0.3,0.1-0.4,0.1l-0.1,0c-0.2,0-0.3,0.1-0.5,0.1l0,0
				c-0.4,0.1-0.7,0.3-1,0.4l0,0c-0.2,0.1-0.3,0.2-0.5,0.3l0,0c-0.8,0.5-1.5,1.1-2.1,1.8L18,19.3c-0.1,0.2-0.3,0.3-0.4,0.5
				c-0.1,0.1-0.2,0.3-0.3,0.5l-0.1,0.1c-0.1,0.2-0.2,0.3-0.2,0.4l0,0c-0.2,0.3-0.3,0.7-0.4,1.1l0,0.1c-0.3,0.9-0.4,1.8-0.4,2.7
				l0,0.1c0,0.1,0,0.3,0,0.4c0,0.1,0,0.1,0,0.2c0,0.1,0,0.2,0,0.2l0,0l0,0.1c0,0.1,0,0.3,0.1,0.4c0.2,1.3,0.8,2.6,1.7,3.7l0,0.1
				l0-0.1c0.4-0.4,1.2-1.8,1.3-2.6l0,0l0,0c-0.4-0.8-0.6-1.7-0.6-2.6c0-3.1,2.4-5.6,5.4-5.8l0.2,0c1.2,0,2.4,0.3,3.5,1l0,0l2-1.2
				l0,0v0c0-3.2-1.2-6.3-3.5-8.5C24.2,7.8,21.2,6.6,18,6.6"/>
		</g>
	</g>
	<g id="Group-4" transform="translate(3.420000, 73.530002)">
		<g id="Rectangle-Copy-4">
			<g class="st10">
				<path id="path-5_2_" d="M10.3,0h370.2c5.7,0,10.3,4.6,10.3,10.3v43.6c0,5.7-4.6,10.3-10.3,10.3H10.3C4.6,64.1,0,59.5,0,53.9
					V10.3C0,4.6,4.6,0,10.3,0z"/>
			</g>
			<g>
				<path id="path-5_1_" class="st2" d="M10.3,0h370.2c5.7,0,10.3,4.6,10.3,10.3v43.6c0,5.7-4.6,10.3-10.3,10.3H10.3
					C4.6,64.1,0,59.5,0,53.9V10.3C0,4.6,4.6,0,10.3,0z"/>
			</g>
		</g>
		<path id="Rectangle_2_" class="st11" d="M86.8,36.8L86.8,36.8c0.7,0,1.3,0.6,1.3,1.3v11.1c0,0.7-0.6,1.3-1.3,1.3l0,0
			c-0.7,0-1.3-0.6-1.3-1.3V38C85.5,37.3,86.1,36.8,86.8,36.8z"/>
		<text transform="matrix(1 0 0 1 85.5 29.8401)" class="st4 st5 st6">Your CI</text>
		<text transform="matrix(1 0 0 1 94.05 47.0701)" class="st4 st7 st8">Build #312435432 of your/project-name pa…</text>
		<g id="codebuild" transform="translate(21.375001, 23.085001)">
			<path id="Shape" class="st12" d="M11.2,8.5c0,0.5,0,0.9,0.1,1.2c0.1,0.3,0.2,0.6,0.4,0.9c0.1,0.1,0.1,0.2,0.1,0.3
				c0,0.1-0.1,0.3-0.2,0.4l-0.8,0.6c-0.1,0.1-0.2,0.1-0.3,0.1c-0.1,0-0.3-0.1-0.4-0.2c-0.2-0.2-0.3-0.4-0.5-0.6
				c-0.1-0.2-0.3-0.5-0.4-0.8c-1,1.2-2.3,1.8-3.8,1.8c-1.1,0-2-0.3-2.6-0.9s-1-1.5-1-2.5c0-1.1,0.4-2,1.2-2.7s1.8-1,3.2-1
				c0.4,0,0.9,0,1.4,0.1C8,5.2,8.5,5.3,9,5.4v-1c0-1-0.2-1.7-0.6-2.1C8,2,7.3,1.8,6.3,1.8c-0.5,0-0.9,0-1.4,0.2
				c-0.5,0.1-1,0.3-1.4,0.4C3.2,2.5,3.1,2.6,3,2.6s-0.2,0-0.2,0c-0.2,0-0.3-0.1-0.3-0.4V1.6c0-0.2,0-0.4,0.1-0.5
				C2.7,1,2.8,0.9,3,0.8c0.5-0.2,1-0.4,1.6-0.6C5.3,0.1,5.9,0,6.6,0c1.6,0,2.7,0.4,3.4,1.1c0.7,0.7,1.1,1.8,1.1,3.2L11.2,8.5
				L11.2,8.5z M5.9,10.5c0.4,0,0.9-0.1,1.3-0.2c0.5-0.2,0.9-0.4,1.2-0.8c0.2-0.2,0.4-0.5,0.4-0.8s0.1-0.7,0.1-1.1V6.9
				C8.7,6.8,8.3,6.7,7.9,6.7C7.4,6.6,7,6.6,6.6,6.6c-0.9,0-1.5,0.2-1.9,0.5C4.3,7.5,4,8,4,8.6C4,9.2,4.2,9.7,4.5,10
				C4.8,10.3,5.3,10.5,5.9,10.5z M16.4,11.9c-0.2,0-0.4,0-0.5-0.1s-0.2-0.3-0.3-0.5L12.6,1.2c-0.1-0.3-0.1-0.4-0.1-0.5
				c0-0.2,0.1-0.3,0.3-0.3H14c0.2,0,0.4,0,0.5,0.1c0.1,0.1,0.2,0.3,0.3,0.5L17,9.6L19,1c0.1-0.3,0.1-0.4,0.2-0.5
				c0.1-0.1,0.3-0.1,0.5-0.1h1c0.2,0,0.4,0,0.5,0.1c0.1,0.1,0.2,0.3,0.2,0.5l2.1,8.7L25.9,1c0.1-0.3,0.2-0.4,0.3-0.5
				c0.1-0.1,0.3-0.1,0.5-0.1h1.2c0.2,0,0.3,0.1,0.3,0.3c0,0.1,0,0.1,0,0.2c0,0.1,0,0.2-0.1,0.3L25,11.3c-0.1,0.3-0.2,0.4-0.3,0.5
				c-0.1,0.1-0.3,0.1-0.5,0.1h-1.1c-0.2,0-0.4,0-0.5-0.1c-0.1-0.1-0.2-0.3-0.2-0.5l-2-8.4l-2,8.4c-0.1,0.3-0.1,0.4-0.2,0.5
				c-0.1,0.1-0.3,0.1-0.5,0.1L16.4,11.9L16.4,11.9z M33.2,12.3c-0.7,0-1.4-0.1-2-0.2c-0.6-0.2-1.2-0.3-1.5-0.5
				c-0.2-0.1-0.4-0.2-0.4-0.4c0-0.1-0.1-0.2-0.1-0.4v-0.7c0-0.3,0.1-0.4,0.3-0.4c0.1,0,0.2,0,0.2,0s0.2,0.1,0.3,0.1
				c0.4,0.2,0.9,0.4,1.4,0.5c0.5,0.1,1,0.2,1.6,0.2c0.8,0,1.5-0.1,1.9-0.4c0.4-0.3,0.7-0.7,0.7-1.2c0-0.4-0.1-0.7-0.4-0.9
				s-0.7-0.5-1.3-0.7L32,6.6c-1-0.3-1.7-0.7-2.1-1.3c-0.4-0.6-0.6-1.2-0.6-1.9c0-0.6,0.1-1,0.4-1.4s0.6-0.8,0.9-1.1
				c0.4-0.3,0.8-0.5,1.4-0.7S33,0,33.6,0c0.3,0,0.6,0,0.9,0c0.3,0,0.6,0.1,0.8,0.1c0.3,0.1,0.5,0.1,0.7,0.2c0.2,0.1,0.4,0.2,0.6,0.2
				C36.8,0.8,36.9,0.9,37,1s0.1,0.2,0.1,0.4V2c0,0.3-0.1,0.4-0.3,0.4c-0.1,0-0.3,0-0.5-0.2c-0.7-0.3-1.6-0.5-2.5-0.5
				c-0.7,0-1.3,0.1-1.7,0.4c-0.4,0.2-0.6,0.6-0.6,1.2c0,0.4,0.1,0.7,0.4,0.9c0.3,0.2,0.7,0.5,1.4,0.7l1.8,0.6c0.9,0.3,1.6,0.7,2,1.2
				c0.4,0.5,0.6,1.2,0.6,1.8c0,0.6-0.1,1.1-0.3,1.5c-0.2,0.4-0.6,0.8-1,1.2C36,11.6,35.5,11.8,35,12C34.4,12.2,33.8,12.3,33.2,12.3z
				"/>
			<path id="Shape_1_" class="st13" d="M35.6,18.6c-4.3,3.2-10.5,4.8-15.9,4.8c-7.5,0-14.3-2.8-19.4-7.4c-0.4-0.4,0-0.9,0.4-0.6
				c5.5,3.2,12.4,5.2,19.4,5.2c4.8,0,10-1,14.8-3C35.7,17.3,36.3,18.1,35.6,18.6z M37.4,16.6c-0.6-0.7-3.6-0.3-5-0.2
				c-0.4,0-0.5-0.3-0.1-0.6c2.4-1.7,6.5-1.2,7-0.6c0.5,0.6-0.1,4.6-2.4,6.6c-0.4,0.3-0.7,0.1-0.5-0.2C36.8,20.2,38,17.3,37.4,16.6z"
				/>
		</g>
	</g>
	<path id="Rectangle_3_" class="st14" d="M174.8,22.7h27.4c5,0,9,4,9,9l0,0c0,5-4,9-9,9h-27.4c-5,0-9-4-9-9l0,0
		C165.9,26.7,169.9,22.7,174.8,22.7z"/>
	<path id="Rectangle-Copy-5" class="st14" d="M162,90.5h27.4c5,0,9,4,9,9l0,0c0,5-4,9-9,9H162c-5,0-9-4-9-9l0,0
		C153,94.5,157.1,90.5,162,90.5z"/>
	<text transform="matrix(1 0 0 1 178.0981 34.6799)" class="st15 st7 st16">App</text>
	<text transform="matrix(1 0 0 1 219.3931 35.5349)" class="st15 st7 st16">12:54PM</text>
	<text transform="matrix(1 0 0 1 165.2732 102.5149)" class="st15 st7 st16">App</text>
	<text transform="matrix(1 0 0 1 207.8506 103.3701)" class="st15 st7 st16">12:54PM</text>
</g>
<g id="Rectangle_4_">
	<g class="st17">
		<path id="path-7_2_" d="M64.1,99h377.1c5.7,0,10.3,4.6,10.3,10.3v291.5c0,5.7-4.6,10.3-10.3,10.3H64.1c-5.7,0-10.3-4.6-10.3-10.3
			V109.3C53.9,103.6,58.5,99,64.1,99z"/>
	</g>
	<g>
		<path id="path-7_1_" class="st18" d="M64.1,99h377.1c5.7,0,10.3,4.6,10.3,10.3v291.5c0,5.7-4.6,10.3-10.3,10.3H64.1
			c-5.7,0-10.3-4.6-10.3-10.3V109.3C53.9,103.6,58.5,99,64.1,99z"/>
	</g>
</g>
<path id="Rectangle-Copy" class="st11" d="M76.9,367.8h144.5c3.8,0,6.8,3.1,6.8,6.8v20.5c0,3.8-3.1,6.8-6.8,6.8H76.9
	c-3.8,0-6.8-3.1-6.8-6.8v-20.5C70.1,370.8,73.2,367.8,76.9,367.8z"/>
<text transform="matrix(1 0 0 1 89.9332 389.9099)" class="st2 st19 st20">Merge Pull request</text>
<text transform="matrix(1 0 0 1 124.83 138.2451)" class="st4 st5 st21">All checks have passed</text>
<g id="Group-12" transform="translate(57.285002, 65.835002)">
	<g id="Rectangle_5_">
		<g class="st22">
			<path id="path-9_2_" d="M10.3,99h370.2c5.7,0,10.3,4.6,10.3,10.3v43.6c0,5.7-4.6,10.3-10.3,10.3H10.3c-5.7,0-10.3-4.6-10.3-10.3
				v-43.6C0,103.6,4.6,99,10.3,99z"/>
		</g>
		<g>
			<path id="path-9_1_" class="st2" d="M10.3,99h370.2c5.7,0,10.3,4.6,10.3,10.3v43.6c0,5.7-4.6,10.3-10.3,10.3H10.3
				c-5.7,0-10.3-4.6-10.3-10.3v-43.6C0,103.6,4.6,99,10.3,99z"/>
		</g>
	</g>
	<polygon id="Path_1_" class="st11" points="36.8,129 27.1,138.3 22.2,133.7 24,131.9 27.1,134.8 34.9,127.2 	"/>
	<text transform="matrix(1 0 0 1 111.1501 136.955)" class="st4 st5 st6">codecov/project/frontend</text>
	<g id="Group-3_1_" transform="translate(55.575002, 13.680000)">
		<circle id="Oval_1_" class="st9" cx="18" cy="117" r="18"/>
		<path id="Path_2_" class="st2" d="M18,105.6c-6.6,0-12,5.4-12,12.1v0l2,1.2l0,0c1.3-0.9,2.8-1.2,4.3-0.9c1.1,0.2,2.1,0.7,2.9,1.4
			l0.3,0.3l0.2-0.4c0.2-0.4,0.4-0.8,0.7-1.2c0.1-0.1,0.2-0.3,0.3-0.5l0.2-0.3l-0.3-0.2c-1.1-0.9-2.4-1.6-3.9-1.8
			c-1.3-0.2-3.1,0.3-4.4,0.7c1-4.3,5.1-7.8,9.5-7.8c2.5,0,4.8,1,6.6,2.7c1.2,1.3,2.1,2.8,2.5,4.6c-0.8-0.3-1.6-0.4-2.5-0.4h-0.2
			c-0.3,0-0.7,0-1,0.1l0,0c-0.1,0-0.3,0-0.4,0.1c-0.1,0-0.1,0-0.2,0c-0.1,0-0.3,0.1-0.4,0.1l-0.1,0c-0.2,0-0.3,0.1-0.5,0.1l0,0
			c-0.4,0.1-0.7,0.3-1,0.4l0,0c-0.2,0.1-0.3,0.2-0.5,0.3l0,0c-0.8,0.5-1.5,1.1-2.1,1.8l-0.1,0.1c-0.1,0.2-0.3,0.3-0.4,0.5
			c-0.1,0.1-0.2,0.3-0.3,0.5l-0.1,0.1c-0.1,0.2-0.2,0.3-0.2,0.4l0,0c-0.2,0.3-0.3,0.7-0.4,1.1l0,0.1c-0.3,0.9-0.4,1.8-0.4,2.7l0,0.1
			c0,0.1,0,0.3,0,0.4c0,0.1,0,0.1,0,0.2c0,0.1,0,0.2,0,0.2l0,0l0,0.1c0,0.1,0,0.3,0.1,0.4c0.2,1.3,0.8,2.6,1.7,3.7l0,0.1l0-0.1
			c0.4-0.4,1.2-1.8,1.3-2.6l0,0l0,0c-0.4-0.8-0.6-1.7-0.6-2.6c0-3.1,2.4-5.6,5.4-5.8l0.2,0c1.2,0,2.4,0.3,3.5,1l0,0l2-1.2l0,0v0
			c0-3.2-1.2-6.3-3.5-8.5C24.2,106.8,21.2,105.6,18,105.6"/>
	</g>
	<text transform="matrix(1 0 0 1 320.625 136.81)" class="st4 st7 st8">85% …</text>
</g>
<g id="Group-12_1_" transform="translate(57.285002, 131.835002)">
	<g id="Rectangle_6_">
		<g class="st23">
			<path id="path-11_2_" d="M10.3,99h370.2c5.7,0,10.3,4.6,10.3,10.3v43.6c0,5.7-4.6,10.3-10.3,10.3H10.3c-5.7,0-10.3-4.6-10.3-10.3
				v-43.6C0,103.6,4.6,99,10.3,99z"/>
		</g>
		<g>
			<path id="path-11_1_" class="st2" d="M10.3,99h370.2c5.7,0,10.3,4.6,10.3,10.3v43.6c0,5.7-4.6,10.3-10.3,10.3H10.3
				c-5.7,0-10.3-4.6-10.3-10.3v-43.6C0,103.6,4.6,99,10.3,99z"/>
		</g>
	</g>
	<polygon id="Path_3_" class="st11" points="36.8,129 27.1,138.3 22.2,133.6 24,131.9 27.1,134.8 34.9,127.2 	"/>
	<text transform="matrix(1 0 0 1 111.1501 136.955)" class="st4 st5 st6">codecov/project/backend</text>
	<g id="Group-3_2_" transform="translate(55.575002, 13.680000)">
		<circle id="Oval_2_" class="st9" cx="18" cy="117" r="18"/>
		<path id="Path_4_" class="st2" d="M18,105.6c-6.6,0-12,5.4-12,12.1v0l2,1.2l0,0c1.3-0.9,2.8-1.2,4.3-0.9c1.1,0.2,2.1,0.7,2.9,1.4
			l0.3,0.3l0.2-0.4c0.2-0.4,0.4-0.8,0.7-1.2c0.1-0.1,0.2-0.3,0.3-0.5l0.2-0.3l-0.3-0.2c-1.1-0.9-2.4-1.6-3.9-1.8
			c-1.3-0.2-3.1,0.3-4.4,0.7c1-4.3,5.1-7.8,9.5-7.8c2.5,0,4.8,1,6.6,2.7c1.2,1.3,2.1,2.8,2.5,4.6c-0.8-0.3-1.6-0.4-2.5-0.4h-0.2
			c-0.3,0-0.7,0-1,0.1l0,0c-0.1,0-0.3,0-0.4,0.1c-0.1,0-0.1,0-0.2,0c-0.1,0-0.3,0.1-0.4,0.1l-0.1,0c-0.2,0-0.3,0.1-0.5,0.1l0,0
			c-0.4,0.1-0.7,0.3-1,0.4l0,0c-0.2,0.1-0.3,0.2-0.5,0.3l0,0c-0.8,0.5-1.5,1.1-2.1,1.8l-0.1,0.1c-0.1,0.2-0.3,0.3-0.4,0.5
			c-0.1,0.1-0.2,0.3-0.3,0.5l-0.1,0.1c-0.1,0.2-0.2,0.3-0.2,0.4l0,0c-0.2,0.3-0.3,0.7-0.4,1.1l0,0.1c-0.3,0.9-0.4,1.8-0.4,2.7l0,0.1
			c0,0.1,0,0.3,0,0.4c0,0.1,0,0.1,0,0.2c0,0.1,0,0.2,0,0.2l0,0l0,0.1c0,0.1,0,0.3,0.1,0.4c0.2,1.3,0.8,2.6,1.7,3.7l0,0.1l0-0.1
			c0.4-0.4,1.2-1.8,1.3-2.6l0,0l0,0c-0.4-0.8-0.6-1.7-0.6-2.6c0-3.1,2.4-5.6,5.4-5.8l0.2,0c1.2,0,2.4,0.3,3.5,1l0,0l2-1.2l0,0v0
			c0-3.2-1.2-6.3-3.5-8.5C24.2,106.8,21.2,105.6,18,105.6"/>
	</g>
	<text transform="matrix(1 0 0 1 320.625 136.81)" class="st4 st7 st8">1.4% …</text>
</g>
<g id="Group-4_1_" transform="translate(57.285002, 197.645002)">
	<g id="Rectangle-Copy-4_1_">
		<g class="st24">
			<path id="path-13_2_" d="M10.3,99h370.2c5.7,0,10.3,4.6,10.3,10.3v43.6c0,5.7-4.6,10.3-10.3,10.3H10.3c-5.7,0-10.3-4.6-10.3-10.3
				v-43.6C0,103.6,4.6,99,10.3,99z"/>
		</g>
		<g>
			<path id="path-13_1_" class="st2" d="M10.3,99h370.2c5.7,0,10.3,4.6,10.3,10.3v43.6c0,5.7-4.6,10.3-10.3,10.3H10.3
				c-5.7,0-10.3-4.6-10.3-10.3v-43.6C0,103.6,4.6,99,10.3,99z"/>
		</g>
	</g>
	<text transform="matrix(1 0 0 1 111.1501 136.125)" class="st4 st5 st6">Test (push)</text>
	<text transform="matrix(1 0 0 1 203.49 135.835)" class="st4 st7 st8">Successful in 32s</text>
	<polygon id="Path_5_" class="st11" points="36.8,128.1 27.1,137.5 22.2,132.8 24,131.1 27.1,134 34.9,126.4 	"/>
	<g>
		<circle class="st25" cx="74.9" cy="132" r="3.9"/>
		<path class="st25" d="M58.8,127.8c0,0-0.1,0.1-0.1,0.2c0,0.4,0.3,0.8,0.8,0.8h6.7c0.3,0,0.6-0.2,0.7-0.5c1.4-3,4.4-5.1,7.9-5.1
			c4.8,0,8.7,3.9,8.7,8.7c0,4.8-3.9,8.7-8.7,8.7c-3.5,0-6.5-2.1-7.9-5c-0.1-0.3-0.4-0.5-0.7-0.5h-6.7c-0.4,0-0.8,0.3-0.8,0.8
			c0,0.1,0,0.1,0.1,0.2c1.9,7.2,8.4,12.6,16.1,12.6c9.2,0,16.6-7.5,16.6-16.6s-7.5-16.7-16.7-16.7C67.2,115.4,60.6,120.7,58.8,127.8
			L58.8,127.8z"/>
	</g>
</g>
<g id="check" transform="translate(70.110002, 15.390000)">
	<circle id="Oval_3_" class="st11" cx="17.1" cy="116.1" r="17.1"/>
	<polygon id="Path_6_" class="st2" points="24.8,113.6 15.1,122.9 10.3,118.3 12.1,116.5 15.1,119.4 23,111.8 	"/>
</g>
<g id="shadow_1_" class="st26">
	<polygon id="path-15_2_" points="40.2,133.2 53.9,126.4 53.9,140 	"/>
</g>
<g>
	<polygon id="path-15_1_" class="st2" points="40.2,133.2 53.9,126.4 53.9,140 	"/>
</g>
<g id="shadow" class="st27">
	<path id="path-17_2_" d="M5.5,113.5h28.7c3,0,5.5,2.4,5.5,5.5v28.7c0,3-2.4,5.5-5.5,5.5H5.5c-3,0-5.5-2.4-5.5-5.5V119
		C0,116,2.4,113.5,5.5,113.5z"/>
</g>
<path id="path-17_1_" class="st11" d="M5.5,113.5h28.7c3,0,5.5,2.4,5.5,5.5v28.7c0,3-2.4,5.5-5.5,5.5H5.5c-3,0-5.5-2.4-5.5-5.5V119
	C0,116,2.4,113.5,5.5,113.5z"/>
<path id="Shape_4_" class="st2" d="M26.7,138.5V130c0-1.1-0.5-2-1.3-2.8c-0.8-0.8-1.8-1.2-2.8-1.3h-1.4v-2.7l-4.1,4.1l4.1,4.1v-2.7
	h1.4c0.4,0,0.7,0.2,0.9,0.4c0.3,0.3,0.4,0.6,0.4,0.9v8.6c-1.1,0.6-1.6,1.9-1.3,3.1s1.4,2,2.6,2c1.2,0,2.3-0.8,2.6-2
	C28.3,140.4,27.7,139.2,26.7,138.5z M25.3,142.5c-0.9,0-1.6-0.8-1.6-1.6c0-0.9,0.8-1.6,1.6-1.6c0.9,0,1.6,0.8,1.6,1.6
	C27,141.8,26.2,142.5,25.3,142.5z M17.1,127.2c0-1.5-1.2-2.7-2.7-2.7c-1.2,0-2.3,0.8-2.6,2s0.2,2.5,1.3,3.1v9
	c-1.1,0.6-1.6,1.9-1.3,3.1s1.4,2,2.6,2c1.2,0,2.3-0.8,2.6-2s-0.2-2.5-1.3-3.1v-9C16.5,129.1,17.1,128.2,17.1,127.2z M16,140.9
	c0,0.9-0.8,1.6-1.6,1.6s-1.6-0.8-1.6-1.6c0-0.9,0.8-1.6,1.6-1.6S16,140,16,140.9z M14.4,128.9c-0.9,0-1.6-0.8-1.6-1.6
	c0-0.9,0.8-1.6,1.6-1.6s1.6,0.8,1.6,1.6C16,128.1,15.3,128.9,14.4,128.9z"/>
</svg>
