<?xml version="1.0" encoding="utf-8"?>
<!-- Generator: Adobe Illustrator 22.0.1, SVG Export Plug-In . SVG Version: 6.00 Build 0)  -->
<svg version="1.1" id="Layer_1" xmlns="http://www.w3.org/2000/svg" xmlns:xlink="http://www.w3.org/1999/xlink" x="0px" y="0px"
	 viewBox="0 0 879.7 863" style="enable-background:new 0 0 879.7 863;" xml:space="preserve">
<style type="text/css">
	.st0{fill:url(#Path-6_1_);}
	.st1{fill:#F01F7A;}
	.st2{fill:#FFB2D3;fill-opacity:0.9;}
</style>
<linearGradient id="Path-6_1_" gradientUnits="userSpaceOnUse" x1="377.6203" y1="559.764" x2="378.0822" y2="560.2452" gradientTransform="matrix(879.7 0 0 -863 -331796.7188 483584)">
	<stop  offset="0" style="stop-color:#ECE5FB"/>
	<stop  offset="1" style="stop-color:#F2DBF1"/>
</linearGradient>
<path id="Path-6_2_" class="st0" d="M879.6,848.7V0H70.2h-4.1h-3.4C20.3,32.7,0,95.8,0,190.3c0,179.4,181.6,234.3,286.1,234.3
	s274.6,2.6,274.6,149.5S637.1,863,879.7,863v-14.3H879.6z"/>
<path id="Oval_1_" class="st1" d="M879.7,545.9c-5.9,0.7-12,1.1-18.1,1.1c-82.3,0-149-66.7-149-149s66.7-149,149-149
	c6.1,0,12.1,0.4,18,1.1L879.7,545.9z"/>
<path id="Oval-Copy_1_" class="st2" d="M879.6,657.4c-52.8-9-93-55-93-110.4s40.2-101.4,93-110.4"/>
</svg>
